<svg width="30" height="30" viewBox="0 0 30 30" fill="none" xmlns="http://www.w3.org/2000/svg">
<path d="M26.25 12.375L24.375 11.125L16.875 6.125L15.6875 5.3375C15.4834 5.20309 15.2444 5.13145 15 5.13145C14.7556 5.13145 14.5166 5.20309 14.3125 5.3375L13.125 6.125L5.625 11.125L3.75 12.375" stroke="currentColor" stroke-width="1.5" stroke-linecap="round" stroke-linejoin="round"/>
<path d="M24.375 11.125V21.125C24.375 22.1196 23.9799 23.0734 23.2767 23.7767C22.5734 24.4799 21.6196 24.875 20.625 24.875H17.5V18.625C17.5 18.2935 17.3683 17.9755 17.1339 17.7411C16.8995 17.5067 16.5815 17.375 16.25 17.375H13.75C13.4185 17.375 13.1005 17.5067 12.8661 17.7411C12.6317 17.9755 12.5 18.2935 12.5 18.625V24.875H9.375C8.38044 24.875 7.42661 24.4799 6.72335 23.7767C6.02009 23.0734 5.625 22.1196 5.625 21.125V11.125" stroke="currentColor" stroke-width="1.5" stroke-linecap="round" stroke-linejoin="round"/>
</svg>
