<svg width="30" height="30" viewBox="0 0 30 30" fill="none" xmlns="http://www.w3.org/2000/svg">
<path d="M20.7932 3H8.27289C4.81394 3 2 5.81394 2 9.2729V20.7271C2 24.1861 4.81394 27 8.27289 27H20.7932C24.2521 27 27.0661 24.1861 27.0661 20.7271V9.2729C27.0661 5.81394 24.2521 3 20.7932 3ZM4.21288 9.2729C4.21288 7.0345 6.0345 5.21286 8.27289 5.21286H20.7932C23.0316 5.21286 24.8532 7.0345 24.8532 9.2729V20.7271C24.8532 22.9655 23.0316 24.7871 20.7932 24.7871H8.27289C6.0345 24.7871 4.21288 22.9655 4.21288 20.7271V9.2729Z" fill="#40173F"/>
<path d="M14.5332 20.8335C17.7498 20.8335 20.3681 18.2166 20.3681 14.9987C20.3681 11.7807 17.7512 9.16382 14.5332 9.16382C11.3153 9.16382 8.69836 11.7807 8.69836 14.9987C8.69836 18.2166 11.3153 20.8335 14.5332 20.8335ZM14.5332 11.3781C16.5306 11.3781 18.1552 13.0027 18.1552 15.0001C18.1552 16.9975 16.5306 18.6221 14.5332 18.6221C12.5358 18.6221 10.9112 16.9975 10.9112 15.0001C10.9112 13.0027 12.5358 11.3781 14.5332 11.3781Z" fill="#40173F"/>
<path d="M20.9081 10.1066C21.7742 10.1066 22.4802 9.40205 22.4802 8.53448C22.4802 7.6669 21.7756 6.96234 20.9081 6.96234C20.0405 6.96234 19.3359 7.6669 19.3359 8.53448C19.3359 9.40205 20.0405 10.1066 20.9081 10.1066Z" fill="#40173F"/>
</svg>
