<svg width="30" height="30" viewBox="0 0 30 30" fill="none" xmlns="http://www.w3.org/2000/svg">
<path d="M3.85323 7.74969C3.28339 7.22077 3 6.56607 3 5.78709C3 5.0081 3.2849 4.32457 3.85323 3.79414C4.42307 3.26522 5.15659 3 6.0553 3C6.95401 3 7.65875 3.26522 8.22707 3.79414C8.79691 4.32306 9.0803 4.9884 9.0803 5.78709C9.0803 6.58577 8.7954 7.22077 8.22707 7.74969C7.65723 8.27862 6.93431 8.54383 6.0553 8.54383C5.17629 8.54383 4.42307 8.27862 3.85323 7.74969ZM8.6014 10.7838V27H3.47738V10.7838H8.6014Z" fill="#40173F"/>
<path d="M25.6588 12.3859C26.7758 13.5983 27.3335 15.2624 27.3335 17.3811V26.7138H22.4671V18.0388C22.4671 16.9704 22.1898 16.1399 21.6366 15.5488C21.0834 14.9578 20.3378 14.6607 19.4042 14.6607C18.4707 14.6607 17.725 14.9563 17.1718 15.5488C16.6186 16.1399 16.3413 16.9704 16.3413 18.0388V26.7138H11.4462V10.7385H16.3413V12.8572C16.8369 12.151 17.5053 11.5933 18.3449 11.1826C19.1845 10.7719 20.1287 10.5673 21.1789 10.5673C23.0491 10.5673 24.5434 11.1735 25.6588 12.3859Z" fill="#40173F"/>
</svg>
