<svg width="24" height="24" viewBox="0 0 24 24" fill="none" xmlns="http://www.w3.org/2000/svg">
<path d="M14.49 18.79C14.2164 19.2026 13.8449 19.541 13.4087 19.7751C12.9724 20.0092 12.4851 20.1317 11.99 20.1317C11.495 20.1317 11.0076 20.0092 10.5714 19.7751C10.1352 19.541 9.76367 19.2026 9.49002 18.79C5.49002 12.92 5.80002 10.08 5.80002 10.08C5.80002 8.44099 6.45112 6.86908 7.6101 5.7101C8.76907 4.55113 10.341 3.90002 11.98 3.90002C13.6191 3.90002 15.191 4.55113 16.3499 5.7101C17.5089 6.86908 18.16 8.44099 18.16 10.08C18.16 10.08 18.53 12.92 14.49 18.79Z" stroke="black" stroke-width="1.5" stroke-linecap="round" stroke-linejoin="round"/>
<path d="M12 12.07C13.1046 12.07 14 11.1746 14 10.07C14 8.96544 13.1046 8.07001 12 8.07001C10.8954 8.07001 10 8.96544 10 10.07C10 11.1746 10.8954 12.07 12 12.07Z" stroke="black" stroke-width="1.5" stroke-linecap="round" stroke-linejoin="round"/>
</svg>
