<?xml version="1.0" encoding="UTF-8"?>
<svg xmlns="http://www.w3.org/2000/svg" viewBox="0 0 345.99 345.99">
  <defs>
    <style>
      .cls-1, .cls-2 {
        fill: #40173f;
      }

      .cls-3, .cls-4, .cls-5 {
        fill: none;
      }

      .cls-4 {
        stroke: #40173f;
        stroke-width: 8px;
      }

      .cls-4, .cls-2, .cls-5 {
        stroke-miterlimit: 10;
      }

      .cls-2, .cls-5 {
        stroke: #1d1d1b;
      }
    </style>
  </defs>
  <g id="Calque_9" data-name="Calque 9">
    <g>
      <path class="cls-3" d="M110.62,57.37c2.93,0,5.7.15,8.25.49,4.59.61,10.32,1.51,16.59,2.8-.02-.05-.04-.11-.06-.16-.56-1.29-1.33-2.45-2.3-3.52-1.93-2.13-4.72-3.87-7.78-5.13-2.03-.84-4.17-1.47-6.17-1.9-2.67-.58-5.14-.81-6.72-.81h-.15s0,0,0,0c-3.56.03-7.11,1.18-10.34,2.97-3.22,1.79-6.08,4.22-8.15,6.51-.01.01-.02.02-.03.03,5.81-.81,11.6-1.29,16.86-1.3Z"/>
      <path class="cls-3" d="M89.31,208.01c0-3.7.06-7.2.06-10.43,0-3.48-.07-6.65-.35-9.36-.27-2.72-.76-4.98-1.47-6.66-.47-1.12-1.03-1.98-1.67-2.65-.87-.89-1.91-1.52-3.56-1.93-.94-.23-2.07-.36-3.43-.36-.4,0-.82.01-1.26.04-2.35.13-4.07.58-5.36,1.22-1.29.65-2.19,1.46-2.98,2.6-.52.76-.98,1.68-1.37,2.78-.52,1.46-.91,3.25-1.19,5.3-.37,2.74-.55,5.97-.65,9.58-.09,3.26-.14,6.84-.24,10.67.85.15,1.72.29,2.62.44.2.03.42.07.62.1,1.26-21.22,1.82-28.86,8.97-28.61,8.66.31,6.8,7.47,7.24,30.8,1.32.15,2.67.28,4.04.42-.02-1.34-.03-2.66-.03-3.96Z"/>
      <path class="cls-5" d="M143.28,83.78c-1.29-.36-2.57-.69-3.84-1.01l-.04.19c-8.19-1.51-16.29-2.68-23.95-3.29-9.31.11-18.3,1.44-26.37,3.45-8.41,2.1-15.82,4.92-21.51,7.76-3.79,1.89-6.82,3.79-8.81,5.41-.54.43-1,.85-1.37,1.22l-.77,11.07c.31-.09.58-.17.78-.23,1.38-.44,5.47-1.93,5.47-1.93.48-.15,1,.11,1.15.6l.87,2.74c.15.48-.11,1-.6,1.15,0,0-4.09,1.48-5.49,1.92-.56.18-1.55.46-2.52.73l-.56,8.02c.37-.09.79-.17,1.22-.23,0,0,5.75-1.16,11.21-2.16,1.28-14.64,1.75-27.03,9.74-27.3,8.68-.3,10.5.27,9.98,25,4.59-.3,8.59-.53,8.59-.53,1.76-.22,3.23,0,3.29.51l-.56,4.32c.06.5-.49.64-2.25.86,0,0-14.83.11-19.95.75-5.02.63-19.47,3.21-19.47,3.21-.81.1-1.55.11-2.13.03l-2,28.72c2.34-.1,5.69-.26,7.19-.39,2.31-.2,9.23-1.12,9.23-1.12.61-.05,1.14.4,1.19,1l.27,3.15c.05.61-.4,1.14-1,1.19,0,0-7.26.95-9.68,1.16-1.59.14-5.37.3-7.57.39l-2.1,30.1c1.85-.06,4.65-.2,4.65-.2.51,0,.92.4.92.91l.02,2.87c0,.51-.4.92-.91.92,0,0-3.16.15-5.01.2l-.75,10.7c.91.21,2.14.5,3.69.83,1.62.35,3.6.76,5.85,1.19.08-3.42.13-6.7.22-9.75.15-4.96.41-9.41,1.25-13.36.57-2.63,1.4-5.06,2.75-7.2.77-1.22,1.7-2.34,2.82-3.3,1.27-1.1,2.77-1.98,4.44-2.61,1.91-.72,4.05-1.12,6.42-1.25.55-.03,1.09-.05,1.61-.05,3,0,5.65.5,7.93,1.59,2.28,1.08,4.1,2.77,5.38,4.77.86,1.33,1.5,2.79,1.99,4.33.65,2.05,1.04,4.26,1.28,6.62.32,3.14.39,6.54.4,10.17,0,3.31-.06,6.8-.06,10.43,0,1.48.02,2.99.05,4.52,6.63.5,13.66.82,20.88.82,37.87,0,68.39-7.1,74.86-8.73v-30.63c-1.11-.38-3.93-1.35-5.02-1.78-1.34-.54-5.1-2.25-5.1-2.25-.47-.19-.67-.8-.44-1.38l1.29-3.26c.23-.57.79-.89,1.26-.7,0,0,3.81,1.76,5.11,2.27.61.24,1.78.66,2.89,1.04v-40.73c-.62-.25-4.06-1.61-5.27-2.18-1.31-.61-4.96-2.54-4.96-2.54-.46-.21-.61-.87-.33-1.48l1.58-3.44c.28-.61.88-.93,1.34-.71,0,0,3.71,1.98,4.97,2.56.57.26,1.63.7,2.67,1.12v-14.01c-.54-.56-1.19-1.17-1.98-1.81-2.71-2.22-6.77-4.78-11.62-7.33-9.71-5.11-22.58-10.23-34.72-13.62ZM114.99,195.28c-.03.5-.47.89-.97.86,0,0-4.34-.09-5.81-.18-1.44-.09-5.55-.52-5.55-.52-.5-.03-.89-.47-.86-.97l.18-2.86c.03-.5.47-.89.97-.86,0,0,4.17.45,5.56.53,1.45.09,5.79.17,5.79.17.5.03.89.47.86.97l-.18,2.86ZM130.92,140.28c-.03.5-.47.89-.97.86,0,0-4.34-.09-5.81-.18-1.44-.09-5.55-.52-5.55-.52-.5-.03-.89-.47-.86-.97l.18-2.86c.03-.5.47-.89.97-.86,0,0,4.17.45,5.56.53,1.45.09,5.79.17,5.79.17.5.03.89.47.86.97l-.18,2.86ZM136.75,108.43c-.5-.03-.89-.47-.86-.97l.18-2.86c.03-.5.47-.89.97-.86,0,0,4.17.45,5.56.53,1.45.09,5.79.17,5.79.17.5.03.89.47.86.97l-.18,2.86c-.03.5-.47.89-.97.86,0,0-4.34-.09-5.81-.18-1.44-.09-5.55-.52-5.55-.52ZM157.68,177.78c-.03.5-.47.89-.97.86,0,0-4.34-.09-5.81-.18-1.44-.09-5.55-.52-5.55-.52-.5-.03-.89-.47-.86-.97l.18-2.86c.03-.5.47-.89.97-.86,0,0,4.17.45,5.56.53,1.45.09,5.79.17,5.79.17.5.03.89.47.86.97l-.18,2.86Z"/>
      <path class="cls-3" d="M78.08,70.26h-.1c-.09.01-.21.03-.36.05-.3.04-.7.11-1.17.2-.93.19-2.12.49-3.41.88-2.59.78-5.62,1.95-8.14,3.32-1.68.91-3.13,1.92-4.06,2.83-.3.29-.54.57-.74.82-.19.31-.38.62-.54.95-.05.15-.73,1.71-.73,1.71-.26.75-.47,1.53-.64,2.34.88-.62,1.81-1.22,2.8-1.79,6.67-3.85,16.05-6.93,28.22-9.11,4.92-.88,10.16-1.25,15.62-1.25,11.34,0,28.96,4.23,41.32,6.5l-5.53-1.34c2.73.68,5.51,1.45,8.3,2.29,9.76,2.97,19.64,6.85,28.03,10.93,4.36,2.12,8.3,4.28,11.65,6.43-.75-1.34-1.64-2.65-2.68-3.91-3.01-3.66-7.26-6.99-12.28-9.9-10.05-5.84-23.13-9.97-34.98-12.67-7.9-1.81-15.26-3-20.84-3.74-2.1-.28-4.55-.42-7.2-.42-5.57,0-12.06.6-18.49,1.62-4.83.76-9.63,1.76-14.01,2.89v.37h-.03Z"/>
      <path class="cls-1" d="M130.25,136.45s-4.35-.08-5.79-.17c-1.39-.09-5.56-.53-5.56-.53-.5-.03-.94.35-.97.86l-.18,2.86c-.03.5.35.94.86.97,0,0,4.1.43,5.55.52,1.47.09,5.81.18,5.81.18.5.03.94-.35.97-.86l.18-2.86c.03-.5-.35-.94-.86-.97Z"/>
      <path class="cls-1" d="M199.75,109.74h0v-.15c0-2,0-4.99-.65-8.01-.19-.87-.44-1.74-.75-2.6-.65-2.49-1.63-4.85-2.87-7.05-3.44-6.07-8.82-10.94-15.09-14.97-9.42-6.03-20.99-10.24-32.12-13.27-1.01-.28-2.02-.54-3.03-.79-.22-1.84-.65-3.59-1.27-5.2-1.41-3.65-3.75-6.61-6.43-8.91-4.05-3.45-8.85-5.53-13.34-6.83-2.25-.65-4.43-1.1-6.42-1.38-2-.29-3.8-.42-5.36-.42h-.24s-.1,0-.1,0h.1c-4.34.04-8.4,1.14-12,2.78-5.41,2.47-9.84,6.1-13.07,9.66-1.61,1.79-2.92,3.56-3.9,5.27-.49.86-.9,1.7-1.22,2.59-.04.11-.07.22-.11.34-1.28.28-2.56.35-3.82.5-1.1.13-3.3.37-4.4.62-3.82.89-8.99,2.6-13.61,5.2-2.31,1.31-4.49,2.84-6.3,4.81-.9.99-1.7,2.11-2.3,3.41-.6,1.29-1.12,2.86-1.62,4.34-.59,1.74-.84,3.53-1.03,9.36-.04,1.36-.22,7.15-.22,7.76l-.15,3.41s-.66,21.38-2.61,46.95c-.98,12.78-1.95,26.15-2.68,37.51-.37,5.68-.67,10.85-.89,15.2-.21,4.36-.34,7.88-.34,10.32,0,.99.02,1.79.07,2.48.03.35.06.66.13,1.02.04.18.08.38.17.64.1.26.2.6.63,1.14.46.54.84.77,1.18.98.65.37,1.21.56,1.86.76,1.2.37,2.69.68,4.54,1.01,3.21.56,7.46,1.12,12.43,1.65,14.89,1.59,36.18,2.91,53.69,2.97h0c.09,0,.19,0,.29,0,3.99,0,10.69-.25,18.62-.67,11.89-.62,26.47-1.61,38.35-2.68,5.94-.53,11.2-1.08,15.15-1.62,1.98-.27,3.62-.54,4.92-.81.65-.14,1.22-.28,1.76-.46.27-.09.54-.19.85-.34.31-.16.66-.33,1.14-.81.31-.32.47-.58.59-.79.22-.41.3-.68.37-.93.13-.47.2-.89.28-1.37.13-.9.23-2.02.33-3.41.33-4.82.55-12.83.69-22.4.14-9.57.2-20.67.2-31.55,0-18.74-.17-36.78-.41-45.24ZM189.62,104.72c.79.64,1.44,1.25,1.98,1.81v14.01c-1.03-.42-2.1-.86-2.67-1.12-1.27-.58-4.97-2.56-4.97-2.56-.46-.21-1.06.11-1.34.71l-1.58,3.44c-.28.61-.13,1.27.33,1.48,0,0,3.65,1.93,4.96,2.54,1.21.56,4.65,1.93,5.27,2.18v40.73c-1.11-.38-2.28-.8-2.89-1.04-1.3-.51-5.11-2.27-5.11-2.27-.47-.19-1.04.13-1.26.7l-1.29,3.26c-.23.57-.03,1.19.44,1.38,0,0,3.75,1.71,5.1,2.25,1.09.43,3.9,1.4,5.02,1.78v30.63c-6.47,1.62-36.99,8.73-74.86,8.73-7.23,0-14.25-.31-20.88-.82-.03-1.52-.05-3.04-.05-4.52,0-3.63.06-7.12.06-10.43,0-3.63-.07-7.03-.4-10.17-.25-2.35-.63-4.56-1.28-6.62-.49-1.54-1.13-3-1.99-4.33-1.28-2-3.11-3.69-5.38-4.77-2.28-1.09-4.92-1.59-7.93-1.59-.52,0-1.06.02-1.61.05-2.37.13-4.51.53-6.42,1.25-1.67.63-3.17,1.51-4.44,2.61-1.11.96-2.05,2.08-2.82,3.3-1.34,2.14-2.18,4.57-2.75,7.2-.85,3.95-1.1,8.4-1.25,13.36-.09,3.06-.14,6.33-.22,9.75-2.25-.43-4.22-.84-5.85-1.19-1.55-.34-2.78-.62-3.69-.83l.75-10.7c1.84-.05,5.01-.2,5.01-.2.51,0,.91-.42.91-.92l-.02-2.87c0-.51-.42-.91-.92-.91,0,0-2.79.14-4.65.2l2.1-30.1c2.2-.09,5.98-.25,7.57-.39,2.42-.21,9.68-1.16,9.68-1.16.61-.05,1.05-.58,1-1.19l-.27-3.15c-.05-.61-.58-1.05-1.19-1,0,0-6.92.92-9.23,1.12-1.5.13-4.85.29-7.19.39l2-28.72c.58.07,1.32.07,2.13-.03,0,0,14.44-2.58,19.47-3.21,5.11-.64,19.95-.75,19.95-.75,1.76-.22,2.31-.36,2.25-.86l.56-4.32c-.06-.5-1.54-.73-3.29-.51,0,0-4.01.22-8.59.53.52-24.73-1.3-25.3-9.98-25-7.99.27-8.46,12.66-9.74,27.3-5.45,1.01-11.21,2.16-11.21,2.16-.44.06-.85.13-1.22.23l.56-8.02c.98-.27,1.96-.55,2.52-.73,1.41-.44,5.49-1.92,5.49-1.92.48-.15.75-.67.6-1.15l-.87-2.74c-.15-.48-.67-.75-1.15-.6,0,0-4.08,1.49-5.47,1.93-.2.06-.47.15-.78.23l.77-11.07c.38-.37.83-.79,1.37-1.22,1.99-1.61,5.02-3.52,8.81-5.41,5.69-2.84,13.1-5.66,21.51-7.76,8.07-2.01,16.86-2.32,26.17-2.42,22.53,2.29,22.38,2.63,27.63,3.71,12.35,2.55,25.41,7.88,35.12,12.99,4.85,2.55,8.91,5.1,11.62,7.33ZM85.3,211.55c-.44-23.33,1.43-30.49-7.24-30.8-7.15-.26-7.71,7.38-8.97,28.61-.21-.03-.42-.07-.62-.1-.9-.15-1.77-.29-2.62-.44.1-3.83.14-7.41.24-10.67.1-3.61.28-6.84.65-9.58.28-2.06.67-3.84,1.19-5.3.39-1.1.85-2.02,1.37-2.78.79-1.14,1.69-1.95,2.98-2.6,1.29-.64,3.01-1.1,5.36-1.22.44-.02.86-.04,1.26-.04,1.36,0,2.49.13,3.43.36,1.65.41,2.69,1.04,3.56,1.93.65.67,1.2,1.53,1.67,2.65.71,1.68,1.19,3.94,1.47,6.66.28,2.72.35,5.88.35,9.36,0,3.23-.06,6.73-.06,10.43,0,1.29.01,2.62.03,3.96-1.37-.13-2.72-.27-4.04-.42ZM101.93,52.12c3.23-1.8,6.77-2.95,10.34-2.97h.15c1.58,0,4.05.23,6.72.81,2.01.43,4.14,1.06,6.17,1.9,3.06,1.26,5.84,3,7.78,5.13.97,1.07,1.74,2.22,2.3,3.52.02.05.04.11.06.16-6.27-1.28-12-2.19-16.59-2.8-2.55-.34-5.32-.49-8.25-.49-5.26,0-11.05.48-16.86,1.3.01-.01.02-.02.03-.03,2.06-2.29,4.93-4.73,8.15-6.51ZM92.12,67c6.44-1.02,12.93-1.63,18.49-1.62,2.66,0,5.1.14,7.2.42,5.58.74,12.94,1.94,20.84,3.74,11.85,2.7,24.93,6.83,34.98,12.67,5.03,2.91,9.27,6.24,12.28,9.9,1.04,1.26,1.93,2.57,2.68,3.91-3.35-2.15-7.29-4.31-11.65-6.43-8.39-4.08-18.26-7.96-28.03-10.93-2.79-.85-5.56-1.61-8.3-2.29,0,0-11.38-4.56-35.79-5.16-5.46-.13-10.7.37-15.62,1.25-12.17,2.19-21.55,5.26-28.22,9.11-.99.58-1.92,1.18-2.8,1.79.16-.8.37-1.59.64-2.34,0,0,.68-1.56.73-1.71.17-.33.35-.64.54-.95.19-.25.43-.53.74-.82.93-.91,2.38-1.92,4.06-2.83,2.52-1.38,5.56-2.55,8.14-3.32,1.29-.39,4.64-1.28,5.07-1.36,5.04-.92,9.19-2.26,14.01-3.02Z"/>
      <path class="cls-2" d="M149.08,108.27l.18-2.86c.03-.5-.35-.94-.86-.97,0,0-4.35-.08-5.79-.17-1.39-.09-5.56-.53-5.56-.53-.5-.03-.94.35-.97.86l-.18,2.86c-.03.5.35.94.86.97,0,0,4.1.43,5.55.52,1.47.09,5.81.18,5.81.18.5.03.94-.35.97-.86Z"/>
      <path class="cls-1" d="M157.01,173.94s-4.35-.08-5.79-.17c-1.39-.09-5.56-.53-5.56-.53-.5-.03-.94.35-.97.86l-.18,2.86c-.03.5.35.94.86.97,0,0,4.1.43,5.55.52,1.47.09,5.81.18,5.81.18.5.03.94-.35.97-.86l.18-2.86c.03-.5-.35-.94-.86-.97Z"/>
      <path class="cls-1" d="M114.31,191.44s-4.35-.08-5.79-.17c-1.39-.09-5.56-.53-5.56-.53-.5-.03-.94.35-.97.86l-.18,2.86c-.03.5.35.94.86.97,0,0,4.1.43,5.55.52,1.47.09,5.81.18,5.81.18.5.03.94-.35.97-.86l.18-2.86c.03-.5-.35-.94-.86-.97Z"/>
    </g>
  </g>
  <g id="Calque_10" data-name="Calque 10">
    <path class="cls-4" d="M13.25,228.22c-5.99-17.31-9.25-35.88-9.25-55.23C4,79.66,79.66,4,172.99,4s168.99,75.66,168.99,168.99c0,19.34-3.27,37.92-9.25,55.23"/>
  </g>
  <g id="Calque_11" data-name="Calque 11">
    <path class="cls-4" d="M254.72,320.94c-24.22,13.41-52.08,21.05-81.73,21.05s-57.51-7.64-81.73-21.05"/>
  </g>
  <g id="Calque_6" data-name="Calque 6">
    <path class="cls-1" d="M320.36,141.16s-86.03,1.02-105.58,1.91c-6.46.29,14.92-14.09,21.37-14.57,20.92-1.56,84.2-5.28,84.2-5.28v17.93Z"/>
    <rect class="cls-1" x="214.02" y="147.8" width="7.37" height="64.63"/>
    <rect class="cls-1" x="223.95" y="147.51" width="7.37" height="64.91"/>
    <rect class="cls-1" x="233.31" y="147.23" width="8.5" height="65.2"/>
    <rect class="cls-1" x="243.81" y="146.95" width="7.37" height="65.48"/>
    <rect class="cls-1" x="253.74" y="146.66" width="7.37" height="65.76"/>
    <rect class="cls-1" x="263.67" y="146.38" width="7.37" height="66.05"/>
    <rect class="cls-1" x="273.6" y="146.1" width="7.37" height="66.33"/>
    <rect class="cls-1" x="283.53" y="145.81" width="7.37" height="66.61"/>
    <rect class="cls-1" x="293.46" y="145.53" width="7.37" height="66.9"/>
    <rect class="cls-1" x="303.39" y="144.96" width="7.37" height="67.46"/>
    <rect class="cls-1" x="313.32" y="144.68" width="7.37" height="67.75"/>
  </g>
  <g id="Calque_8" data-name="Calque 8">
    <g>
      <path class="cls-1" d="M37.63,306.69v4.03h-10.8v-17.5h4.45v13.47h6.35Z"/>
      <path class="cls-1" d="M43.63,293.21l-3.15,7.55h-3.67l2.38-7.55h4.45Z"/>
      <path class="cls-1" d="M47.88,311.09c-1.3,0-2.35-.35-3.14-1.06-.79-.71-1.19-1.66-1.19-2.86,0-1,.37-1.84,1.11-2.51.74-.67,1.78-1.12,3.11-1.34l3.55-.6c-.02-.5-.22-.9-.6-1.21-.38-.31-.86-.46-1.42-.46-.5,0-.95.11-1.35.33s-.75.55-1.05,1l-2.9-2.2c.58-.82,1.35-1.45,2.29-1.89.94-.44,1.99-.66,3.14-.66,1.82,0,3.25.47,4.29,1.41s1.56,2.19,1.56,3.74v7.95h-3.95v-.95c-.33.38-.82.7-1.46.95-.64.25-1.3.38-1.99.38ZM47.48,306.96c0,.32.12.57.35.76.23.19.54.29.92.29.55,0,1.04-.11,1.46-.33.43-.22.8-.56,1.11-1.02v-1.25l-2.48.42c-.48.08-.83.21-1.05.39-.22.17-.33.42-.33.74Z"/>
      <path class="cls-1" d="M62.38,316.86h-3.98v-18.75h3.98v.7c.47-.43.98-.74,1.55-.92.57-.18,1.22-.27,1.95-.27,1.88,0,3.41.64,4.59,1.91s1.76,2.9,1.76,4.89-.59,3.61-1.76,4.89c-1.17,1.27-2.7,1.91-4.59,1.91-.73,0-1.38-.09-1.95-.28-.57-.18-1.08-.49-1.55-.92v6.85ZM65.3,301.34c-.6,0-1.14.12-1.62.38s-.92.62-1.3,1.12v3.15c.38.5.82.88,1.3,1.12s1.02.38,1.62.38c.87,0,1.55-.28,2.06-.84s.76-1.3.76-2.24-.25-1.68-.76-2.24-1.2-.84-2.06-.84Z"/>
      <path class="cls-1" d="M78.68,316.86h-3.98v-18.75h3.98v.7c.47-.43.98-.74,1.55-.92.57-.18,1.22-.27,1.95-.27,1.88,0,3.41.64,4.59,1.91s1.76,2.9,1.76,4.89-.59,3.61-1.76,4.89c-1.17,1.27-2.7,1.91-4.59,1.91-.73,0-1.38-.09-1.95-.28-.57-.18-1.08-.49-1.55-.92v6.85ZM81.6,301.34c-.6,0-1.14.12-1.62.38s-.92.62-1.3,1.12v3.15c.38.5.82.88,1.3,1.12s1.02.38,1.62.38c.87,0,1.55-.28,2.06-.84s.76-1.3.76-2.24-.25-1.68-.76-2.24-1.2-.84-2.06-.84Z"/>
      <path class="cls-1" d="M103.35,311.21c-1.88,0-3.41-.64-4.59-1.92-1.18-1.28-1.76-2.91-1.76-4.88s.59-3.59,1.76-4.88c1.17-1.28,2.7-1.92,4.59-1.92.72,0,1.36.09,1.92.27.57.18,1.08.48,1.55.9v-6.83h4v18.75h-4v-.67c-.47.42-.98.72-1.55.9-.57.18-1.21.28-1.92.28ZM101.13,304.41c0,.93.25,1.68.75,2.24s1.18.84,2.05.84c.58,0,1.12-.12,1.6-.35s.92-.6,1.3-1.1v-3.25c-.38-.5-.82-.87-1.3-1.1-.48-.23-1.02-.35-1.6-.35-.87,0-1.55.28-2.05.84s-.75,1.3-.75,2.24Z"/>
      <path class="cls-1" d="M126,308.69c-.62.82-1.41,1.44-2.38,1.88-.97.43-2.04.65-3.22.65-2.15,0-3.87-.63-5.15-1.89-1.28-1.26-1.92-2.9-1.92-4.91s.6-3.63,1.79-4.9c1.19-1.27,2.78-1.9,4.76-1.9,1.77,0,3.2.53,4.29,1.6,1.09,1.07,1.64,2.47,1.64,4.2,0,.37-.02.74-.08,1.12-.05.38-.11.71-.17.97h-8.15c.15.75.46,1.3.94,1.64.47.34,1.15.51,2.04.51.58,0,1.12-.11,1.62-.33s.9-.51,1.2-.88l2.8,2.22ZM119.78,300.81c-.63,0-1.15.16-1.55.48s-.67.79-.8,1.42h4.52c-.03-.53-.25-.98-.64-1.35-.39-.37-.9-.55-1.54-.55Z"/>
      <path class="cls-1" d="M137.85,310.71l-4.33-12.6h4.25l2.7,7.82,2.67-7.82h4.25l-4.32,12.6h-5.23Z"/>
      <path class="cls-1" d="M153.43,294.21c0,.68-.25,1.28-.74,1.78-.49.5-1.07.75-1.74.75s-1.27-.25-1.77-.75-.75-1.09-.75-1.78.25-1.27.75-1.76c.5-.49,1.09-.74,1.77-.74s1.25.25,1.74.75c.49.5.74,1.08.74,1.75ZM152.9,310.71h-3.98v-12.6h3.98v12.6Z"/>
      <path class="cls-1" d="M160.28,311.21c-1.08,0-2.05-.19-2.91-.58-.86-.38-1.65-.99-2.39-1.83l2.6-2.38c.43.55.87.96,1.3,1.23.43.27.88.4,1.35.4.33,0,.6-.08.79-.24.19-.16.29-.37.29-.64,0-.23-.12-.44-.35-.62-.23-.18-.76-.42-1.57-.72-.78-.27-1.36-.5-1.74-.7s-.7-.42-.96-.65c-.4-.35-.7-.75-.9-1.21-.2-.46-.3-.97-.3-1.54,0-1.2.45-2.19,1.36-2.96.91-.78,2.05-1.16,3.44-1.16.95,0,1.87.2,2.76.61.89.41,1.59.94,2.09,1.59l-2.6,2.33c-.4-.48-.78-.83-1.15-1.05-.37-.22-.73-.33-1.1-.33-.32,0-.57.07-.75.21-.18.14-.27.33-.27.56,0,.22.11.41.34.59.23.18.74.4,1.54.69.78.27,1.37.5,1.75.7.38.2.71.42.98.65.42.35.72.75.92,1.2.2.45.3.97.3,1.55-.02,1.3-.48,2.34-1.39,3.12-.91.78-2.05,1.17-3.41,1.17Z"/>
      <path class="cls-1" d="M172.08,294.21c0,.68-.25,1.28-.74,1.78-.49.5-1.07.75-1.74.75s-1.27-.25-1.77-.75-.75-1.09-.75-1.78.25-1.27.75-1.76c.5-.49,1.09-.74,1.77-.74s1.25.25,1.74.75c.49.5.74,1.08.74,1.75ZM171.55,310.71h-3.98v-12.6h3.98v12.6Z"/>
      <path class="cls-1" d="M180.53,310.96c-1.58,0-2.79-.44-3.61-1.31s-1.24-2.15-1.24-3.84v-4.15h-2.35v-3.55h2.35v-3.15h4v3.15h3.45v3.55h-3.45v4.15c0,.5.13.88.4,1.15s.66.4,1.18.4c.4,0,.76-.03,1.07-.08s.59-.12.83-.2v3.42c-.35.15-.73.26-1.15.34-.42.08-.91.11-1.48.11Z"/>
      <path class="cls-1" d="M197.33,308.69c-.62.82-1.41,1.44-2.38,1.88-.97.43-2.04.65-3.22.65-2.15,0-3.87-.63-5.15-1.89-1.28-1.26-1.92-2.9-1.92-4.91s.6-3.63,1.79-4.9,2.78-1.9,4.76-1.9c1.77,0,3.2.53,4.29,1.6s1.64,2.47,1.64,4.2c0,.37-.02.74-.08,1.12-.05.38-.11.71-.17.97h-8.15c.15.75.46,1.3.94,1.64.47.34,1.15.51,2.04.51.58,0,1.12-.11,1.62-.33s.9-.51,1.2-.88l2.8,2.22ZM191.1,300.81c-.63,0-1.15.16-1.55.48-.4.32-.67.79-.8,1.42h4.53c-.03-.53-.25-.98-.64-1.35-.39-.37-.9-.55-1.54-.55Z"/>
      <path class="cls-1" d="M212.18,311.21c-1.88,0-3.41-.64-4.59-1.92-1.17-1.28-1.76-2.91-1.76-4.88s.59-3.59,1.76-4.88c1.18-1.28,2.71-1.92,4.59-1.92.72,0,1.36.09,1.93.27.57.18,1.08.48,1.55.9v-6.83h4v18.75h-4v-.67c-.47.42-.98.72-1.55.9-.57.18-1.21.28-1.93.28ZM209.95,304.41c0,.93.25,1.68.75,2.24s1.18.84,2.05.84c.58,0,1.12-.12,1.6-.35.48-.23.92-.6,1.3-1.1v-3.25c-.38-.5-.82-.87-1.3-1.1-.48-.23-1.02-.35-1.6-.35-.87,0-1.55.28-2.05.84s-.75,1.3-.75,2.24Z"/>
      <path class="cls-1" d="M234.83,308.69c-.62.82-1.41,1.44-2.38,1.88-.97.43-2.04.65-3.22.65-2.15,0-3.87-.63-5.15-1.89-1.28-1.26-1.92-2.9-1.92-4.91s.6-3.63,1.79-4.9,2.78-1.9,4.76-1.9c1.77,0,3.2.53,4.29,1.6,1.09,1.07,1.64,2.47,1.64,4.2,0,.37-.02.74-.07,1.12-.05.38-.11.71-.18.97h-8.15c.15.75.46,1.3.94,1.64.47.34,1.15.51,2.04.51.58,0,1.12-.11,1.62-.33s.9-.51,1.2-.88l2.8,2.22ZM228.6,300.81c-.63,0-1.15.16-1.55.48-.4.32-.67.79-.8,1.42h4.53c-.03-.53-.25-.98-.64-1.35-.39-.37-.9-.55-1.54-.55Z"/>
      <path class="cls-1" d="M248.05,310.71h-3.97v-18.75h3.97v18.75Z"/>
      <path class="cls-1" d="M256.7,293.21l-3.15,7.55h-3.67l2.38-7.55h4.45Z"/>
      <path class="cls-1" d="M259.1,310.71v-17.5h10.8v3.67h-6.35v3.08h5.35v3.67h-5.35v3.4h6.35v3.67h-10.8Z"/>
      <path class="cls-1" d="M278.5,310.71h-4.45v-17.5h5.65l6.27,10.92v-10.92h4.45v17.5h-5.65l-6.28-10.92v10.92Z"/>
      <path class="cls-1" d="M299.72,310.71h-4.45v-17.5h5.5l3.45,6.25,3.47-6.25h5.5v17.5h-4.45v-11.25l-3,5.25h-3.03l-3-5.25v11.25Z"/>
    </g>
    <g>
      <path class="cls-1" d="M26.56,274.05h-10.68v-42h13.2l8.28,15,8.34-15h13.2v42h-10.68v-27l-7.2,12.6h-7.26l-7.2-12.6v27Z"/>
      <path class="cls-1" d="M76.72,274.95c-3.12,0-5.63-.85-7.53-2.55-1.9-1.7-2.85-3.99-2.85-6.87,0-2.4.89-4.41,2.67-6.03,1.78-1.62,4.27-2.69,7.47-3.21l8.52-1.44c-.04-1.2-.52-2.17-1.44-2.91-.92-.74-2.06-1.11-3.42-1.11-1.2,0-2.28.26-3.24.78-.96.52-1.8,1.32-2.52,2.4l-6.96-5.28c1.4-1.96,3.23-3.47,5.49-4.53,2.26-1.06,4.77-1.59,7.53-1.59,4.36,0,7.79,1.13,10.29,3.39,2.5,2.26,3.75,5.25,3.75,8.97v19.08h-9.48v-2.28c-.8.92-1.97,1.68-3.51,2.28-1.54.6-3.13.9-4.77.9ZM75.76,265.05c0,.76.28,1.37.84,1.83.56.46,1.3.69,2.22.69,1.32,0,2.49-.26,3.51-.78,1.02-.52,1.91-1.34,2.67-2.46v-3l-5.94,1.02c-1.16.2-2,.51-2.52.93-.52.42-.78,1.01-.78,1.77Z"/>
      <path class="cls-1" d="M100.78,253.22c0-3.16,1.13-5.72,3.39-7.68,2.26-1.96,5.27-2.94,9.03-2.94,1.2,0,2.34.1,3.42.3s2.08.5,3,.9h10.8v7.98h-4.74c0,.24,0,.48.03.72.02.24.03.48.03.72,0,3.2-1.13,5.78-3.39,7.74-2.26,1.96-5.31,2.94-9.15,2.94-.28,0-.57,0-.87-.03-.3-.02-.57-.03-.81-.03-.2.2-.34.4-.42.6-.08.2-.12.4-.12.6,0,.48.13.84.39,1.08.26.24.67.36,1.23.36h6.9c3.52,0,6.36.93,8.52,2.79,2.16,1.86,3.24,4.29,3.24,7.29,0,3.6-1.51,6.58-4.53,8.94-3.02,2.36-6.87,3.54-11.55,3.54-5.2,0-9.13-.83-11.79-2.49-2.66-1.66-3.99-4.11-3.99-7.35,0-1.44.34-2.76,1.02-3.96.68-1.2,1.66-2.28,2.94-3.24-.52-.6-.93-1.28-1.23-2.04-.3-.76-.45-1.54-.45-2.34,0-1.28.24-2.41.72-3.39s1.28-1.89,2.4-2.73c-1.28-.96-2.27-2.14-2.97-3.54-.7-1.4-1.05-2.98-1.05-4.74ZM108.28,277.76c0,1.24.57,2.18,1.71,2.82,1.14.64,2.83.96,5.07.96s3.89-.34,5.07-1.02c1.18-.68,1.77-1.66,1.77-2.94,0-.96-.31-1.7-.93-2.22-.62-.52-1.51-.78-2.67-.78h-8.82c-.44.6-.75,1.14-.93,1.62-.18.48-.27,1-.27,1.56ZM109.3,253.22c0,1.16.35,2.07,1.05,2.73.7.66,1.67.99,2.91.99s2.22-.33,2.94-.99c.72-.66,1.08-1.57,1.08-2.73s-.36-2.06-1.08-2.7c-.72-.64-1.7-.96-2.94-.96s-2.21.32-2.91.96c-.7.64-1.05,1.54-1.05,2.7Z"/>
      <path class="cls-1" d="M146.38,234.45c0,1.64-.59,3.06-1.77,4.26-1.18,1.2-2.57,1.8-4.17,1.8s-3.06-.6-4.26-1.8-1.8-2.62-1.8-4.26.6-3.05,1.8-4.23c1.2-1.18,2.62-1.77,4.26-1.77s2.99.6,4.17,1.8c1.18,1.2,1.77,2.6,1.77,4.2ZM145.12,274.05h-9.54v-30.24h9.54v30.24Z"/>
      <path class="cls-1" d="M162.82,275.25c-2.6,0-4.93-.46-6.99-1.38-2.06-.92-3.97-2.38-5.73-4.38l6.24-5.7c1.04,1.32,2.08,2.3,3.12,2.94,1.04.64,2.12.96,3.24.96.8,0,1.43-.19,1.89-.57.46-.38.69-.89.69-1.53,0-.56-.28-1.06-.84-1.5-.56-.44-1.82-1.02-3.78-1.74-1.88-.64-3.27-1.2-4.17-1.68-.9-.48-1.67-1-2.31-1.56-.96-.84-1.68-1.81-2.16-2.91-.48-1.1-.72-2.33-.72-3.69,0-2.88,1.09-5.25,3.27-7.11,2.18-1.86,4.93-2.79,8.25-2.79,2.28,0,4.49.49,6.63,1.47,2.14.98,3.81,2.25,5.01,3.81l-6.24,5.58c-.96-1.16-1.88-2-2.76-2.52-.88-.52-1.76-.78-2.64-.78-.76,0-1.36.17-1.8.51-.44.34-.66.79-.66,1.35,0,.52.27.99.81,1.41s1.77.97,3.69,1.65c1.88.64,3.28,1.2,4.2,1.68.92.48,1.7,1,2.34,1.56,1,.84,1.74,1.8,2.22,2.88.48,1.08.72,2.32.72,3.72-.04,3.12-1.15,5.62-3.33,7.5-2.18,1.88-4.91,2.82-8.19,2.82Z"/>
      <path class="cls-1" d="M194.68,274.64c-3.8,0-6.69-1.05-8.67-3.15-1.98-2.1-2.97-5.17-2.97-9.21v-9.96h-5.64v-8.52h5.64v-7.56h9.6v7.56h8.28v8.52h-8.28v9.96c0,1.2.32,2.12.96,2.76.64.64,1.58.96,2.82.96.96,0,1.82-.06,2.58-.18.76-.12,1.42-.28,1.98-.48v8.22c-.84.36-1.76.63-2.76.81s-2.18.27-3.54.27Z"/>
      <path class="cls-1" d="M216.52,274.05h-9.54v-30.24h9.54v2.4c.08-.04.15-.09.21-.15l.21-.21c1.04-.88,2.13-1.54,3.27-1.98s2.35-.66,3.63-.66c.48,0,.96.04,1.44.12.48.08.92.18,1.32.3v9.42c-.64-.16-1.25-.27-1.83-.33-.58-.06-1.21-.09-1.89-.09-1.36,0-2.64.31-3.84.93-1.2.62-2.04,1.33-2.52,2.13v18.36Z"/>
      <path class="cls-1" d="M248.26,232.05l-7.56,18.12h-8.82l5.7-18.12h10.68Z"/>
      <path class="cls-1" d="M264.7,274.05h-10.68v-42h10.68v15.78h17.94v-15.78h10.68v42h-10.68v-16.56h-17.94v16.56Z"/>
      <path class="cls-1" d="M311.2,274.95c-3.12,0-5.63-.85-7.53-2.55-1.9-1.7-2.85-3.99-2.85-6.87,0-2.4.89-4.41,2.67-6.03,1.78-1.62,4.27-2.69,7.47-3.21l8.52-1.44c-.04-1.2-.52-2.17-1.44-2.91-.92-.74-2.06-1.11-3.42-1.11-1.2,0-2.28.26-3.24.78-.96.52-1.8,1.32-2.52,2.4l-6.96-5.28c1.4-1.96,3.23-3.47,5.49-4.53s4.77-1.59,7.53-1.59c4.36,0,7.79,1.13,10.29,3.39,2.5,2.26,3.75,5.25,3.75,8.97v19.08h-9.48v-2.28c-.8.92-1.97,1.68-3.51,2.28s-3.13.9-4.77.9ZM327.52,239.01h-8.22l-3.84-5.82-3.84,5.82h-8.22l6.12-9.96h11.88l6.12,9.96ZM310.24,265.05c0,.76.28,1.37.84,1.83.56.46,1.3.69,2.22.69,1.32,0,2.49-.26,3.51-.78,1.02-.52,1.91-1.34,2.67-2.46v-3l-5.94,1.02c-1.16.2-2,.51-2.52.93-.52.42-.78,1.01-.78,1.77Z"/>
    </g>
  </g>
</svg>