<svg width="30" height="30" viewBox="0 0 30 30" fill="none" xmlns="http://www.w3.org/2000/svg">
<path d="M11.25 7H7.75C6.7835 7 6 7.77489 6 8.73077V20.2692C6 21.2251 6.7835 22 7.75 22H11.25C12.2165 22 13 21.2251 13 20.2692V8.73077C13 7.77489 12.2165 7 11.25 7Z" fill="#40173F" stroke="#40173F" stroke-width="1.5" stroke-linecap="round" stroke-linejoin="round"/>
<path d="M22.25 7H18.75C17.7835 7 17 7.77489 17 8.73077V20.2692C17 21.2251 17.7835 22 18.75 22H22.25C23.2165 22 24 21.2251 24 20.2692V8.73077C24 7.77489 23.2165 7 22.25 7Z" fill="#40173F" stroke="#40173F" stroke-width="1.5" stroke-linecap="round" stroke-linejoin="round"/>
</svg>
