<svg width="40" height="40" viewBox="0 0 40 40" fill="none" xmlns="http://www.w3.org/2000/svg">
<circle cx="20" cy="20" r="19.5" fill="#E42413" stroke="#4D4D4C"/>
<path d="M18.2307 13.1248C18.5012 13.1248 18.7209 13.3436 18.7209 13.6141V18.5448C18.7209 18.8152 18.5012 19.035 18.2307 19.035H13.3C13.0296 19.035 12.8108 18.8152 12.8108 18.5448V13.6141C12.8108 13.3436 13.0296 13.1248 13.3 13.1248H18.2307ZM13.7893 18.0555H17.7415V14.1034H13.7893V18.0555Z" fill="white" stroke="white" stroke-width="0.2"/>
<path d="M26.7693 13.1248C27.0398 13.1248 27.2595 13.3436 27.2595 13.6141V16.9813C27.2594 17.2517 27.0397 17.4706 26.7693 17.4706C26.4991 17.4703 26.2801 17.2515 26.28 16.9813V14.1034H22.3279V18.0555H25.0642C25.3347 18.0555 25.5544 18.2753 25.5544 18.5457C25.5542 18.816 25.3346 19.035 25.0642 19.035H21.8386C21.5681 19.035 21.3494 18.8152 21.3494 18.5448V13.6141C21.3494 13.3436 21.5681 13.1248 21.8386 13.1248H26.7693Z" fill="white" stroke="white" stroke-width="0.2"/>
<path d="M18.1606 20.9663C18.4311 20.9663 18.6509 21.1851 18.6509 21.4556V26.3863C18.6509 26.6567 18.4311 26.8765 18.1606 26.8765H13.23C12.9595 26.8765 12.7407 26.6567 12.7407 26.3863V21.4556C12.7407 21.1851 12.9595 20.9663 13.23 20.9663H18.1606ZM13.7192 25.897H17.6714V21.9449H13.7192V25.897Z" fill="white" stroke="white" stroke-width="0.2"/>
<path d="M22.6049 22.9944H21.2988C21.0835 22.9944 20.9092 22.8201 20.9092 22.6048V21.2987C20.9092 21.0835 21.0835 20.9091 21.2988 20.9091H22.6049C22.8201 20.9091 22.9945 21.0835 22.9945 21.2987V22.6048C22.9945 22.8201 22.8201 22.9944 22.6049 22.9944ZM21.6884 22.2152H22.2153V21.6883H21.6884V22.2152Z" fill="white"/>
<path d="M26.4388 25.0222H24.935C24.7198 25.0222 24.5454 24.8479 24.5454 24.6326V21.2987C24.5454 21.0835 24.7198 20.9091 24.935 20.9091H26.4388C26.6541 20.9091 26.8284 21.0835 26.8284 21.2987V24.6326C26.8284 24.8479 26.6541 25.0222 26.4388 25.0222ZM25.3246 24.243H26.0492V21.6883H25.3246V24.243Z" fill="white"/>
<path d="M22.9545 26.5382H21.2988C21.0835 26.5382 20.9092 26.3639 20.9092 26.1487V24.9351C20.9092 24.7198 21.0835 24.5455 21.2988 24.5455H22.9545C23.1698 24.5455 23.3441 24.7198 23.3441 24.9351V26.1487C23.3441 26.3639 23.1688 26.5382 22.9545 26.5382ZM21.6884 25.7591H22.5649V25.3247H21.6884V25.7591Z" fill="white"/>
<path d="M14.7402 9.90039C15.0107 9.90039 15.2305 10.1192 15.2305 10.3896C15.2304 10.6601 15.0107 10.8789 14.7402 10.8789H12.7275C11.7085 10.8789 10.8789 11.7085 10.8789 12.7275V27.2725C10.8789 28.2915 11.7085 29.1201 12.7275 29.1201H27.2715C28.2906 29.1201 29.1201 28.2915 29.1201 27.2725L29.1211 12.7275C29.1211 11.7085 28.2915 10.8789 27.2725 10.8789H19.123C18.8527 10.8788 18.6338 10.66 18.6338 10.3896C18.6338 10.1193 18.8527 9.90053 19.123 9.90039H27.2725C28.8315 9.90039 30.0996 11.1683 30.0996 12.7275V27.2725C30.0996 28.8315 28.8317 30.0996 27.2725 30.0996H12.7275C11.1685 30.0996 9.90039 28.8317 9.90039 27.2725V12.7275C9.90039 11.1685 11.1683 9.90039 12.7275 9.90039H14.7402Z" fill="white" stroke="white" stroke-width="0.2"/>
</svg>
