<svg width="30" height="30" viewBox="0 0 30 30" fill="none" xmlns="http://www.w3.org/2000/svg">
<path d="M22.5677 12.2042L12.6955 6.50871C12.1177 6.17513 11.4623 5.99967 10.7951 6C10.128 6.00033 9.47269 6.17643 8.89526 6.51058C8.31782 6.84472 7.83861 7.32511 7.50589 7.90337C7.17317 8.48163 6.99869 9.13735 7.00001 9.8045V21.1955C6.99869 21.8626 7.17317 22.5184 7.50589 23.0966C7.83861 23.6749 8.31782 24.1553 8.89526 24.4894C9.47269 24.8236 10.128 24.9997 10.7951 25C11.4623 25.0003 12.1177 24.8249 12.6955 24.4913L22.5677 18.7958C23.1446 18.4605 23.6233 17.9796 23.9561 17.4012C24.2889 16.8228 24.464 16.1673 24.464 15.5C24.464 14.8327 24.2889 14.1772 23.9561 13.5988C23.6233 13.0204 23.1446 12.5395 22.5677 12.2042Z" fill="#40173F" stroke="#40173F" stroke-width="1.5" stroke-linecap="round" stroke-linejoin="round"/>
</svg>
