<svg width="30" height="30" viewBox="0 0 30 30" fill="none" xmlns="http://www.w3.org/2000/svg">
<path d="M13.2307 8.12485C13.5012 8.12485 13.7209 8.34363 13.7209 8.61411V13.5448C13.7209 13.8152 13.5012 14.035 13.2307 14.035H8.30005C8.02957 14.035 7.81079 13.8152 7.81079 13.5448V8.61411C7.81079 8.34363 8.02957 8.12485 8.30005 8.12485H13.2307ZM8.78931 13.0555H12.7415V9.10336H8.78931V13.0555Z" fill="currentColor" stroke="currentColor" stroke-width="0.2"/>
<path d="M21.7693 8.12485C22.0398 8.12485 22.2595 8.34363 22.2595 8.61411V11.9813C22.2594 12.2517 22.0397 12.4706 21.7693 12.4706C21.4991 12.4703 21.2801 12.2515 21.28 11.9813V9.10336H17.3279V13.0555H20.0642C20.3347 13.0555 20.5544 13.2753 20.5544 13.5457C20.5542 13.816 20.3346 14.035 20.0642 14.035H16.8386C16.5681 14.035 16.3494 13.8152 16.3494 13.5448V8.61411C16.3494 8.34363 16.5681 8.12485 16.8386 8.12485H21.7693Z" fill="currentColor" stroke="currentColor" stroke-width="0.2"/>
<path d="M13.1606 15.9663C13.4311 15.9663 13.6509 16.1851 13.6509 16.4556V21.3862C13.6509 21.6567 13.4311 21.8765 13.1606 21.8765H8.22998C7.9595 21.8765 7.74072 21.6567 7.74072 21.3862V16.4556C7.74072 16.1851 7.9595 15.9663 8.22998 15.9663H13.1606ZM8.71924 20.897H12.6714V16.9448H8.71924V20.897Z" fill="currentColor" stroke="currentColor" stroke-width="0.2"/>
<path d="M17.6049 17.9944H16.2988C16.0835 17.9944 15.9092 17.8201 15.9092 17.6048V16.2987C15.9092 16.0834 16.0835 15.9091 16.2988 15.9091H17.6049C17.8201 15.9091 17.9945 16.0834 17.9945 16.2987V17.6048C17.9945 17.8201 17.8201 17.9944 17.6049 17.9944ZM16.6884 17.2152H17.2153V16.6883H16.6884V17.2152Z" fill="currentColor"/>
<path d="M21.4388 20.0222H19.935C19.7198 20.0222 19.5454 19.8479 19.5454 19.6326V16.2987C19.5454 16.0834 19.7198 15.9091 19.935 15.9091H21.4388C21.6541 15.9091 21.8284 16.0834 21.8284 16.2987V19.6326C21.8284 19.8479 21.6541 20.0222 21.4388 20.0222ZM20.3246 19.243H21.0492V16.6883H20.3246V19.243Z" fill="currentColor"/>
<path d="M17.9545 21.5382H16.2988C16.0835 21.5382 15.9092 21.3639 15.9092 21.1487V19.9351C15.9092 19.7198 16.0835 19.5455 16.2988 19.5455H17.9545C18.1698 19.5455 18.3441 19.7198 18.3441 19.9351V21.1487C18.3441 21.3639 18.1688 21.5382 17.9545 21.5382ZM16.6884 20.7591H17.5649V20.3247H16.6884V20.7591Z" fill="currentColor"/>
<path d="M9.74023 4.90039C10.0107 4.90039 10.2305 5.11917 10.2305 5.38965C10.2304 5.6601 10.0107 5.87891 9.74023 5.87891H7.72754C6.70846 5.87891 5.87891 6.70846 5.87891 7.72754V22.2725C5.87891 23.2915 6.70846 24.1201 7.72754 24.1201H22.2715C23.2906 24.1201 24.1201 23.2915 24.1201 22.2725L24.1211 7.72754C24.1211 6.70846 23.2915 5.87891 22.2725 5.87891H14.123C13.8527 5.87877 13.6338 5.66002 13.6338 5.38965C13.6338 5.11925 13.8527 4.90053 14.123 4.90039H22.2725C23.8315 4.90039 25.0996 6.16834 25.0996 7.72754V22.2725C25.0996 23.8315 23.8317 25.0996 22.2725 25.0996H7.72754C6.1685 25.0996 4.90039 23.8317 4.90039 22.2725V7.72754C4.90039 6.1685 6.16834 4.90039 7.72754 4.90039H9.74023Z" fill="currentColor" stroke="currentColor" stroke-width="0.2"/>
</svg>
