<svg width="30" height="30" viewBox="0 0 30 30" fill="none" xmlns="http://www.w3.org/2000/svg">
<path d="M27.7784 10.8253C27.6187 9.29476 27.2751 7.60281 26.0103 6.71365C25.0307 6.02412 23.743 5.99863 22.541 6.00005C20 6.00146 17.4576 6.0043 14.9166 6.00572C12.4725 6.00855 10.0285 6.00997 7.58442 6.0128C6.56346 6.01422 5.57101 5.93494 4.62277 6.37385C3.80856 6.75047 3.17117 7.46688 2.7876 8.26401C2.25573 9.37262 2.14451 10.6285 2.08034 11.8546C1.96199 14.0875 1.97483 16.3259 2.11599 18.5573C2.22009 20.1856 2.48388 21.9851 3.75153 23.0229C4.87516 23.9418 6.46079 23.9871 7.91809 23.9885C12.5438 23.9928 17.1709 23.9971 21.7981 23.9999C22.3913 24.0013 23.0101 23.99 23.6147 23.9248C24.8039 23.7974 25.9375 23.459 26.7018 22.584C27.4733 21.7019 27.6715 20.4744 27.7884 19.312C28.0736 16.4916 28.0707 13.6443 27.7784 10.8253ZM12.2415 18.9537V11.0462L19.1373 14.9993L12.2415 18.9537Z" fill="#40173F"/>
</svg>
