<svg width="30" height="30" viewBox="0 0 30 30" fill="none" xmlns="http://www.w3.org/2000/svg">
<path d="M12.6751 13.875C14.546 13.875 16.0626 12.3584 16.0626 10.4875C16.0626 8.61664 14.546 7.10001 12.6751 7.10001C10.8042 7.10001 9.2876 8.61664 9.2876 10.4875C9.2876 12.3584 10.8042 13.875 12.6751 13.875Z" stroke="currentColor" stroke-width="1.5" stroke-linecap="round" stroke-linejoin="round"/>
<path d="M18.175 7.675C18.8902 7.72265 19.5605 8.04034 20.0501 8.56372C20.5398 9.0871 20.8122 9.77703 20.8122 10.4938C20.8122 11.2105 20.5398 11.9004 20.0501 12.4238C19.5605 12.9472 18.8902 13.2649 18.175 13.3125" stroke="currentColor" stroke-width="1.5" stroke-linecap="round" stroke-linejoin="round"/>
<path d="M18.3251 17.25H7.0376C5.4843 17.25 4.2251 18.5092 4.2251 20.0625V20.075C4.2251 21.6283 5.4843 22.8875 7.0376 22.8875H18.3251C19.8784 22.8875 21.1376 21.6283 21.1376 20.075V20.0625C21.1376 18.5092 19.8784 17.25 18.3251 17.25Z" stroke="currentColor" stroke-width="1.5" stroke-linecap="round" stroke-linejoin="round"/>
<path d="M23.3999 17.575C24.0629 17.575 24.6988 17.8384 25.1677 18.3072C25.6365 18.7761 25.8999 19.412 25.8999 20.075C25.8999 20.738 25.6365 21.3739 25.1677 21.8428C24.6988 22.3116 24.0629 22.575 23.3999 22.575" stroke="currentColor" stroke-width="1.5" stroke-linecap="round" stroke-linejoin="round"/>
</svg>
