<svg width="231" height="129" viewBox="0 0 231 129" fill="none" xmlns="http://www.w3.org/2000/svg">
<mask id="path-1-inside-1_4532_6989" fill="white">
<path d="M1.20174e-06 64C1.86544e-06 32.5198 25.5198 7 57 7C75.0018 7 91.053 15.3462 101.499 28.3789C93.6783 38.1367 89 50.522 89 64C89.0001 77.4785 93.6786 89.8641 101.5 99.6221C91.0539 112.655 75.0017 121 57 121C25.5198 121 5.38036e-07 95.4802 1.20174e-06 64Z"/>
</mask>
<path d="M1.20174e-06 64C1.86544e-06 32.5198 25.5198 7 57 7C75.0018 7 91.053 15.3462 101.499 28.3789C93.6783 38.1367 89 50.522 89 64C89.0001 77.4785 93.6786 89.8641 101.5 99.6221C91.0539 112.655 75.0017 121 57 121C25.5198 121 5.38036e-07 95.4802 1.20174e-06 64Z" fill="white"/>
<path d="M101.499 28.3789L102.669 29.317L103.421 28.3789L102.669 27.4408L101.499 28.3789ZM89 64L87.5 64L87.5 64L89 64ZM101.5 99.6221L102.67 100.56L103.422 99.6221L102.67 98.6839L101.5 99.6221ZM1.20174e-06 64L1.5 64C1.5 33.3482 26.3482 8.5 57 8.5L57 7L57 5.5C24.6913 5.5 -1.5 31.6913 -1.5 64L1.20174e-06 64ZM57 7L57 8.5C74.5272 8.5 90.1549 16.6242 100.329 29.317L101.499 28.3789L102.669 27.4408C91.951 14.0683 75.4763 5.5 57 5.5L57 7ZM101.499 28.3789L100.329 27.4408C92.3022 37.4551 87.5 50.1688 87.5 64L89 64L90.5 64C90.5 50.8753 95.0543 38.8183 102.669 29.317L101.499 28.3789ZM89 64L87.5 64C87.5001 77.8318 92.3026 90.5458 100.33 100.56L101.5 99.6221L102.67 98.6839C95.0546 89.1825 90.5001 77.1252 90.5 64L89 64ZM101.5 99.6221L100.33 98.6839C90.1559 111.377 74.5273 119.5 57 119.5L57 121L57 122.5C75.4761 122.5 91.9519 113.933 102.67 100.56L101.5 99.6221ZM57 121L57 119.5C26.3482 119.5 1.5 94.6518 1.5 64L1.20174e-06 64L-1.5 64C-1.5 96.3087 24.6913 122.5 57 122.5L57 121Z" fill="#4D4D4C" mask="url(#path-1-inside-1_4532_6989)"/>
<circle cx="166.487" cy="64.2564" r="56.25" transform="rotate(-82.1433 166.487 64.2564)" fill="white" stroke="#4D4D4C" stroke-width="1.5"/>
<path d="M21.9543 69.2139V69.0059C23.3463 68.9579 23.6983 68.6059 23.6983 67.9499V59.3099C23.6983 58.6699 23.3463 58.3019 21.9543 58.2539V58.0619H26.9783C30.3063 58.0619 31.3143 59.3579 31.3143 60.7339C31.3143 61.9179 30.4343 63.0699 28.0823 63.2779V63.3419C30.5463 63.4379 31.7623 64.4619 31.7623 66.0459C31.7623 67.6139 30.6263 69.2139 27.1223 69.2139H21.9543ZM25.5703 63.1819H26.9943C28.7863 63.1819 29.3623 62.2859 29.3623 60.7819C29.3623 59.4219 28.8983 58.3659 26.9303 58.3659H25.5703V63.1819ZM25.5703 68.9099H27.1863C29.2343 68.9099 29.7623 67.9819 29.7623 66.0779C29.7623 64.6219 29.0263 63.4859 27.0423 63.4859H25.5703V68.9099ZM35.083 69.3099C33.659 69.3099 33.035 68.4299 33.035 67.5339C33.035 66.9099 33.323 66.2859 33.995 65.9179C35.179 65.2619 37.051 65.1659 37.419 64.9899V63.8379C37.419 62.6379 37.067 62.0619 36.123 62.0619C35.579 62.0619 35.083 62.2379 34.795 62.5259C35.067 62.7819 35.227 63.0699 35.227 63.3899C35.227 63.9499 34.891 64.3339 34.267 64.3339C33.707 64.3339 33.339 63.9179 33.339 63.3899C33.339 62.4459 34.507 61.7579 36.315 61.7579C38.123 61.7579 39.083 62.4619 39.083 64.1099V67.8379C39.083 68.6219 39.371 68.9579 40.299 68.5739L40.363 68.7339C39.803 69.0859 39.387 69.2779 38.827 69.2779C37.931 69.2779 37.595 68.9099 37.499 68.0459H37.435C36.827 68.7499 36.075 69.3099 35.083 69.3099ZM36.011 68.5739C36.587 68.5739 37.099 68.1259 37.419 67.6779V65.2939C35.291 65.7099 34.827 66.1739 34.827 67.2619C34.827 68.0299 35.195 68.5739 36.011 68.5739ZM40.8624 69.3419V66.6859H41.0864C42.1104 68.4619 42.7184 69.0379 43.8704 69.0379C44.7664 69.0379 45.2464 68.4299 45.2464 67.8059C45.2464 67.0699 44.7984 66.6699 43.2144 66.2219C41.5824 65.7579 40.8944 65.2459 40.8944 64.0619C40.8944 62.6859 41.9504 61.7099 43.5984 61.7099C44.3024 61.7099 44.9744 61.9499 45.4064 62.2059L45.8064 61.7099H45.9824V64.0939H45.7584C44.8304 62.5899 44.3664 62.0139 43.3904 62.0139C42.6544 62.0139 42.0944 62.5099 42.0944 63.2459C42.0944 63.9339 42.7344 64.2859 43.9664 64.6059C45.5984 65.0539 46.3824 65.6299 46.3824 66.8779C46.3824 68.2219 45.4224 69.3419 43.6784 69.3419C43.0864 69.3419 42.0464 69.0859 41.5664 68.7659L41.0384 69.3419H40.8624ZM47.5343 69.3419V66.6859H47.7583C48.7823 68.4619 49.3903 69.0379 50.5423 69.0379C51.4383 69.0379 51.9183 68.4299 51.9183 67.8059C51.9183 67.0699 51.4703 66.6699 49.8863 66.2219C48.2543 65.7579 47.5663 65.2459 47.5663 64.0619C47.5663 62.6859 48.6223 61.7099 50.2703 61.7099C50.9743 61.7099 51.6463 61.9499 52.0783 62.2059L52.4783 61.7099H52.6543V64.0939H52.4303C51.5023 62.5899 51.0383 62.0139 50.0623 62.0139C49.3263 62.0139 48.7663 62.5099 48.7663 63.2459C48.7663 63.9339 49.4063 64.2859 50.6383 64.6059C52.2703 65.0539 53.0543 65.6299 53.0543 66.8779C53.0543 68.2219 52.0943 69.3419 50.3503 69.3419C49.7583 69.3419 48.7183 69.0859 48.2383 68.7659L47.7103 69.3419H47.5343ZM55.9341 60.4299C55.3101 60.4299 54.8941 60.0299 54.8941 59.3899C54.8941 58.7339 55.3101 58.2859 55.9341 58.2859C56.5741 58.2859 56.9901 58.7019 56.9901 59.3419C56.9901 59.9819 56.5741 60.4299 55.9341 60.4299ZM54.0141 69.2139V69.0219C54.9421 69.0059 55.1821 68.8939 55.1821 68.4139V62.9099C55.1821 62.4299 54.9421 62.1259 54.0141 62.1099V61.9179L56.8621 61.8059V68.4139C56.8621 68.8939 57.0381 69.0059 58.0301 69.0219V69.2139H54.0141ZM58.606 69.2139V69.0219C59.518 69.0059 59.742 68.8939 59.742 68.4139V62.9099C59.742 62.4299 59.518 62.1259 58.606 62.1099V61.9179L61.39 61.8059V63.5339C62.11 62.3979 63.086 61.7579 64.158 61.7579C65.422 61.7579 66.126 62.5259 66.126 63.9979V68.4139C66.126 68.8939 66.334 69.0059 67.262 69.0219V69.2139H63.486V69.0219C64.222 69.0059 64.446 68.8939 64.446 68.4139V64.3019C64.446 63.1499 64.11 62.5739 63.15 62.5739C62.462 62.5739 61.854 63.1019 61.422 63.9179V68.4139C61.422 68.8939 61.646 69.0059 62.366 69.0219V69.2139H58.606Z" fill="#4D4D4C"/>
<path d="M137.288 58.3428V58.1348C138.712 58.0868 139.192 57.7348 139.192 57.0788V47.4948H138.568C137.384 47.4948 136.36 48.5828 135.352 50.6788L135.128 50.6628L135.224 47.1908H145.032L145.128 50.6628L144.904 50.6788C143.912 48.6628 142.888 47.4948 141.672 47.4948H141.048V57.0788C141.048 57.7348 141.528 58.0868 142.952 58.1348V58.3428H137.288ZM148.448 58.4708C146.304 58.4708 144.704 56.9668 144.704 54.6788C144.704 52.4068 146.4 50.8388 148.448 50.8388C150.56 50.8388 152.176 52.3428 152.176 54.6148C152.176 56.9028 150.48 58.4708 148.448 58.4708ZM148.512 58.1668C149.696 58.1668 150.304 57.1428 150.304 54.6468C150.304 52.1508 149.584 51.1428 148.368 51.1428C147.168 51.1428 146.56 52.1508 146.56 54.6468C146.56 57.1428 147.296 58.1668 148.512 58.1668ZM156.036 58.4548C154.788 58.4548 154.004 57.7188 154.004 56.2148V51.9748C154.004 51.4948 153.764 51.2068 152.836 51.1908V50.9988L155.684 50.9348V55.8628C155.684 57.0148 156.02 57.6388 156.98 57.6388C157.684 57.6388 158.244 57.1428 158.66 56.3268V51.9748C158.66 51.4948 158.42 51.2228 157.508 51.2068V51.0148L160.34 50.9348V57.5588C160.34 57.9748 160.58 58.1348 161.492 58.1668V58.3428H158.692V56.7108C158.004 57.8628 157.092 58.4548 156.036 58.4548ZM161.95 58.3428V58.1508C162.862 58.1348 163.086 58.0228 163.086 57.5428V52.0388C163.086 51.5588 162.862 51.2548 161.95 51.2388V51.0468L164.734 50.9348V52.5508C165.294 51.5108 166.078 50.8708 166.894 50.8708C167.774 50.8708 168.174 51.4148 168.174 52.0388C168.174 52.6468 167.774 53.0788 167.198 53.0788C166.606 53.0788 166.19 52.6628 166.19 52.0868C166.19 51.9268 166.238 51.7188 166.286 51.5908C165.662 51.6708 165.23 52.1348 164.766 52.9188V57.5428C164.766 58.0228 165.07 58.1188 166.158 58.1508V58.3428H161.95ZM174.903 58.4708C172.919 58.4708 171.735 56.8548 171.735 54.7588C171.735 52.5668 173.223 50.8388 175.415 50.8388C176.183 50.8388 176.615 50.9988 177.047 51.2228V47.9748C177.047 47.4308 176.887 47.1908 175.767 47.1588V46.9668L178.727 46.8708V57.5268C178.727 57.9268 178.967 58.1668 179.879 58.1828V58.3428L177.079 58.4068V57.5268C176.551 58.0708 175.831 58.4708 174.903 58.4708ZM175.687 57.7988C176.311 57.7988 176.711 57.5588 177.047 57.1908V51.9588C176.695 51.4628 176.247 51.1428 175.511 51.1428C174.295 51.1428 173.559 52.5508 173.559 54.6788C173.559 56.4388 174.295 57.7988 175.687 57.7988ZM184.07 58.4708C181.926 58.4708 180.454 56.9508 180.454 54.7428C180.454 52.4548 182.118 50.8388 184.07 50.8388C186.214 50.8388 187.318 52.3428 187.19 54.2468H182.278V54.6148V54.6468C182.278 56.5028 183.11 57.8308 184.79 57.8308C185.798 57.8308 186.39 57.3188 187.046 56.4708L187.222 56.5988C186.582 57.6388 185.67 58.4708 184.07 58.4708ZM183.958 51.1428C182.998 51.1428 182.406 52.1188 182.294 53.9588H185.398C185.558 52.1988 185.158 51.1428 183.958 51.1428ZM188.3 58.4708V55.8148H188.524C189.548 57.5908 190.156 58.1668 191.308 58.1668C192.204 58.1668 192.684 57.5588 192.684 56.9348C192.684 56.1988 192.236 55.7988 190.652 55.3508C189.02 54.8868 188.332 54.3748 188.332 53.1908C188.332 51.8148 189.388 50.8388 191.036 50.8388C191.74 50.8388 192.412 51.0788 192.844 51.3348L193.244 50.8388H193.42V53.2228H193.196C192.268 51.7188 191.804 51.1428 190.828 51.1428C190.092 51.1428 189.532 51.6388 189.532 52.3748C189.532 53.0628 190.172 53.4148 191.404 53.7348C193.036 54.1828 193.82 54.7588 193.82 56.0068C193.82 57.3508 192.86 58.4708 191.116 58.4708C190.524 58.4708 189.484 58.2148 189.004 57.8948L188.476 58.4708H188.3ZM141.109 80.3428V80.1508C141.845 80.1348 142.037 80.0228 142.037 79.5428V75.4628C142.037 74.3108 141.685 73.7028 140.773 73.7028C140.085 73.7028 139.573 74.2308 139.141 75.0468V79.5428C139.141 80.0228 139.269 80.1348 139.989 80.1508V80.3428H136.325V80.1508C137.237 80.1348 137.461 80.0228 137.461 79.5428V74.0388C137.461 73.5588 137.237 73.2548 136.325 73.2388V73.0468L139.109 72.9348V74.6628C139.813 73.5108 140.709 72.8868 141.781 72.8868C142.837 72.8868 143.525 73.4628 143.669 74.5508C144.357 73.5268 145.349 72.8868 146.357 72.8868C147.589 72.8868 148.293 73.6548 148.293 75.1268V79.5428C148.293 80.0228 148.501 80.1348 149.429 80.1508V80.3428H145.749V80.1508C146.485 80.1348 146.613 80.0228 146.613 79.5428V75.4628C146.613 74.3108 146.277 73.7028 145.365 73.7028C144.837 73.7028 144.181 74.1348 143.717 74.9028V74.9988V79.5428C143.717 80.0228 143.925 80.1348 144.741 80.1508V80.3428H141.109ZM151.84 71.5588C151.216 71.5588 150.8 71.1588 150.8 70.5188C150.8 69.8628 151.216 69.4148 151.84 69.4148C152.48 69.4148 152.896 69.8308 152.896 70.4708C152.896 71.1108 152.48 71.5588 151.84 71.5588ZM149.92 80.3428V80.1508C150.848 80.1348 151.088 80.0228 151.088 79.5428V74.0388C151.088 73.5588 150.848 73.2548 149.92 73.2388V73.0468L152.768 72.9348V79.5428C152.768 80.0228 152.944 80.1348 153.936 80.1508V80.3428H149.92ZM154.512 80.3428V80.1508C155.424 80.1348 155.648 80.0228 155.648 79.5428V74.0388C155.648 73.5588 155.424 73.2548 154.512 73.2388V73.0468L157.296 72.9348V74.6628C158.016 73.5268 158.992 72.8868 160.064 72.8868C161.328 72.8868 162.032 73.6548 162.032 75.1268V79.5428C162.032 80.0228 162.24 80.1348 163.168 80.1508V80.3428H159.392V80.1508C160.128 80.1348 160.352 80.0228 160.352 79.5428V75.4308C160.352 74.2788 160.016 73.7028 159.056 73.7028C158.368 73.7028 157.76 74.2308 157.328 75.0468V79.5428C157.328 80.0228 157.552 80.1348 158.272 80.1508V80.3428H154.512ZM165.59 71.5588C164.966 71.5588 164.55 71.1588 164.55 70.5188C164.55 69.8628 164.966 69.4148 165.59 69.4148C166.23 69.4148 166.646 69.8308 166.646 70.4708C166.646 71.1108 166.23 71.5588 165.59 71.5588ZM163.67 80.3428V80.1508C164.598 80.1348 164.838 80.0228 164.838 79.5428V74.0388C164.838 73.5588 164.598 73.2548 163.67 73.2388V73.0468L166.518 72.9348V79.5428C166.518 80.0228 166.694 80.1348 167.686 80.1508V80.3428H163.67ZM173.046 80.3428V80.1508C173.782 80.1348 173.974 80.0228 173.974 79.5428V75.4628C173.974 74.3108 173.622 73.7028 172.71 73.7028C172.022 73.7028 171.51 74.2308 171.078 75.0468V79.5428C171.078 80.0228 171.206 80.1348 171.926 80.1508V80.3428H168.262V80.1508C169.174 80.1348 169.398 80.0228 169.398 79.5428V74.0388C169.398 73.5588 169.174 73.2548 168.262 73.2388V73.0468L171.046 72.9348V74.6628C171.75 73.5108 172.646 72.8868 173.718 72.8868C174.774 72.8868 175.462 73.4628 175.606 74.5508C176.294 73.5268 177.286 72.8868 178.294 72.8868C179.526 72.8868 180.23 73.6548 180.23 75.1268V79.5428C180.23 80.0228 180.438 80.1348 181.366 80.1508V80.3428H177.686V80.1508C178.422 80.1348 178.55 80.0228 178.55 79.5428V75.4628C178.55 74.3108 178.214 73.7028 177.302 73.7028C176.774 73.7028 176.118 74.1348 175.654 74.9028V74.9988V79.5428C175.654 80.0228 175.862 80.1348 176.678 80.1508V80.3428H173.046ZM185.57 80.4708C183.426 80.4708 181.954 78.9508 181.954 76.7428C181.954 74.4548 183.618 72.8388 185.57 72.8388C187.714 72.8388 188.818 74.3428 188.69 76.2468H183.778V76.6148V76.6468C183.778 78.5028 184.61 79.8308 186.29 79.8308C187.298 79.8308 187.89 79.3188 188.546 78.4708L188.722 78.5988C188.082 79.6388 187.17 80.4708 185.57 80.4708ZM185.458 73.1428C184.498 73.1428 183.906 74.1188 183.794 75.9588H186.898C187.058 74.1988 186.658 73.1428 185.458 73.1428ZM189.8 80.4708V77.8148H190.024C191.048 79.5908 191.656 80.1668 192.808 80.1668C193.704 80.1668 194.184 79.5588 194.184 78.9348C194.184 78.1988 193.736 77.7988 192.152 77.3508C190.52 76.8868 189.832 76.3748 189.832 75.1908C189.832 73.8148 190.888 72.8388 192.536 72.8388C193.24 72.8388 193.912 73.0788 194.344 73.3348L194.744 72.8388H194.92V75.2228H194.696C193.768 73.7188 193.304 73.1428 192.328 73.1428C191.592 73.1428 191.032 73.6388 191.032 74.3748C191.032 75.0628 191.672 75.4148 192.904 75.7348C194.536 76.1828 195.32 76.7588 195.32 78.0068C195.32 79.3508 194.36 80.4708 192.616 80.4708C192.024 80.4708 190.984 80.2148 190.504 79.8948L189.976 80.4708H189.8Z" fill="#4D4D4C"/>
</svg>
