<svg width="114" height="114" viewBox="0 0 114 114" fill="none" xmlns="http://www.w3.org/2000/svg">
<mask id="path-1-inside-1_4532_6975" fill="white">
<path d="M0 8C0 3.58172 3.58172 0 8 0H106C110.418 0 114 3.58172 114 8V57C114 88.4802 88.4802 114 57 114C25.5198 114 0 88.4802 0 57V8Z"/>
</mask>
<path d="M0 8C0 3.58172 3.58172 0 8 0H106C110.418 0 114 3.58172 114 8V57C114 88.4802 88.4802 114 57 114C25.5198 114 0 88.4802 0 57V8Z" fill="white"/>
<path d="M8 0V1H106V0V-1H8V0ZM114 8H113V57H114H115V8H114ZM0 57H1V8H0H-1V57H0ZM57 114V113C26.0721 113 1 87.9279 1 57H0H-1C-1 89.0325 24.9675 115 57 115V114ZM114 57H113C113 87.9279 87.9279 113 57 113V114V115C89.0325 115 115 89.0325 115 57H114ZM106 0V1C109.866 1 113 4.13401 113 8H114H115C115 3.02944 110.971 -1 106 -1V0ZM8 0V-1C3.02944 -1 -1 3.02943 -1 8H0H1C1 4.134 4.13401 1 8 1V0Z" fill="#4D4D4C" mask="url(#path-1-inside-1_4532_6975)"/>
<path d="M57.5303 14.5303C57.8232 14.2374 57.8232 13.7626 57.5303 13.4697L52.7574 8.6967C52.4645 8.40381 51.9896 8.40381 51.6967 8.6967C51.4038 8.98959 51.4038 9.46447 51.6967 9.75736L55.9393 14L51.6967 18.2426C51.4038 18.5355 51.4038 19.0104 51.6967 19.3033C51.9896 19.5962 52.4645 19.5962 52.7574 19.3033L57.5303 14.5303ZM78.5 13.25C78.0858 13.25 77.75 13.5858 77.75 14C77.75 14.4142 78.0858 14.75 78.5 14.75V13.25ZM57 14V13.25H52.125V14V14.75H57V14ZM42.375 14V13.25H32.625V14V14.75H42.375V14ZM22.875 14V13.25H18V14V14.75H22.875V14ZM18 14V13.25C15.3766 13.25 13.25 15.3766 13.25 18H14H14.75C14.75 16.2051 16.2051 14.75 18 14.75V14ZM14 18H13.25V22.875H14H14.75V18H14ZM14 32.625H13.25V42.375H14H14.75V32.625H14ZM14 52.125H13.25V57H14H14.75V52.125H14ZM14 57H13.25C13.25 58.936 13.3758 60.843 13.6197 62.7132L14.3634 62.6162L15.1071 62.5192C14.8716 60.7132 14.75 58.871 14.75 57H14ZM17.2629 73.4599L16.5701 73.7472C18.0452 77.3043 19.9759 80.6244 22.2891 83.6347L22.8838 83.1777L23.4785 82.7207C21.2442 79.8132 19.3799 76.607 17.9557 73.1726L17.2629 73.4599ZM30.8223 91.1162L30.3653 91.7109C33.3756 94.0241 36.6957 95.9548 40.2528 97.4299L40.5401 96.7371L40.8274 96.0443C37.393 94.6201 34.1868 92.7558 31.2793 90.5215L30.8223 91.1162ZM51.3838 99.6366L51.2868 100.38C53.157 100.624 55.064 100.75 57 100.75V100V99.25C55.129 99.25 53.2868 99.1284 51.4808 98.8929L51.3838 99.6366ZM57 100V100.75C58.936 100.75 60.843 100.624 62.7132 100.38L62.6162 99.6366L62.5192 98.8929C60.7132 99.1284 58.871 99.25 57 99.25V100ZM73.4599 96.7371L73.7472 97.4299C77.3043 95.9548 80.6244 94.0241 83.6347 91.7109L83.1777 91.1162L82.7207 90.5215C79.8132 92.7558 76.607 94.6201 73.1726 96.0443L73.4599 96.7371ZM91.1162 83.1777L91.7109 83.6347C94.0241 80.6244 95.9548 77.3043 97.4299 73.7472L96.7371 73.4599L96.0443 73.1726C94.6201 76.607 92.7558 79.8132 90.5215 82.7207L91.1162 83.1777ZM99.6366 62.6162L100.38 62.7132C100.624 60.843 100.75 58.936 100.75 57H100H99.25C99.25 58.871 99.1284 60.7132 98.8929 62.5192L99.6366 62.6162ZM100 57H100.75V52.125H100H99.25V57H100ZM100 42.375H100.75V32.625H100H99.25V42.375H100ZM100 22.875H100.75V18H100H99.25V22.875H100ZM100 18H100.75C100.75 15.3766 98.6234 13.25 96 13.25V14V14.75C97.7949 14.75 99.25 16.2051 99.25 18H100ZM96 14V13.25H91.625V14V14.75H96V14ZM82.875 14V13.25H78.5V14V14.75H82.875V14ZM57.5303 14.5303C57.8232 14.2374 57.8232 13.7626 57.5303 13.4697L52.7574 8.6967C52.4645 8.40381 51.9896 8.40381 51.6967 8.6967C51.4038 8.98959 51.4038 9.46447 51.6967 9.75736L55.9393 14L51.6967 18.2426C51.4038 18.5355 51.4038 19.0104 51.6967 19.3033C51.9896 19.5962 52.4645 19.5962 52.7574 19.3033L57.5303 14.5303ZM78.5 13.25C78.0858 13.25 77.75 13.5858 77.75 14C77.75 14.4142 78.0858 14.75 78.5 14.75V13.25ZM57 14V13.25H52.125V14V14.75H57V14ZM42.375 14V13.25H32.625V14V14.75H42.375V14ZM22.875 14V13.25H18V14V14.75H22.875V14ZM18 14V13.25C15.3766 13.25 13.25 15.3766 13.25 18H14H14.75C14.75 16.2051 16.2051 14.75 18 14.75V14ZM14 18H13.25V22.875H14H14.75V18H14ZM14 32.625H13.25V42.375H14H14.75V32.625H14ZM14 52.125H13.25V57H14H14.75V52.125H14ZM14 57H13.25C13.25 58.936 13.3758 60.843 13.6197 62.7132L14.3634 62.6162L15.1071 62.5192C14.8716 60.7132 14.75 58.871 14.75 57H14ZM17.2629 73.4599L16.5701 73.7472C18.0452 77.3043 19.9759 80.6244 22.2891 83.6347L22.8838 83.1777L23.4785 82.7207C21.2442 79.8132 19.3799 76.607 17.9557 73.1726L17.2629 73.4599ZM30.8223 91.1162L30.3653 91.7109C33.3756 94.0241 36.6957 95.9548 40.2528 97.4299L40.5401 96.7371L40.8274 96.0443C37.393 94.6201 34.1868 92.7558 31.2793 90.5215L30.8223 91.1162ZM51.3838 99.6366L51.2868 100.38C53.157 100.624 55.064 100.75 57 100.75V100V99.25C55.129 99.25 53.2868 99.1284 51.4808 98.8929L51.3838 99.6366ZM57 100V100.75C58.936 100.75 60.843 100.624 62.7132 100.38L62.6162 99.6366L62.5192 98.8929C60.7132 99.1284 58.871 99.25 57 99.25V100ZM73.4599 96.7371L73.7472 97.4299C77.3043 95.9548 80.6244 94.0241 83.6347 91.7109L83.1777 91.1162L82.7207 90.5215C79.8132 92.7558 76.607 94.6201 73.1726 96.0443L73.4599 96.7371ZM91.1162 83.1777L91.7109 83.6347C94.0241 80.6244 95.9548 77.3043 97.4299 73.7472L96.7371 73.4599L96.0443 73.1726C94.6201 76.607 92.7558 79.8132 90.5215 82.7207L91.1162 83.1777ZM99.6366 62.6162L100.38 62.7132C100.624 60.843 100.75 58.936 100.75 57H100H99.25C99.25 58.871 99.1284 60.7132 98.8929 62.5192L99.6366 62.6162ZM100 57H100.75V52.125H100H99.25V57H100ZM100 42.375H100.75V32.625H100H99.25V42.375H100ZM100 22.875H100.75V18H100H99.25V22.875H100ZM100 18H100.75C100.75 15.3766 98.6234 13.25 96 13.25V14V14.75C97.7949 14.75 99.25 16.2051 99.25 18H100ZM96 14V13.25H91.625V14V14.75H96V14ZM82.875 14V13.25H78.5V14V14.75H82.875V14Z" fill="#4D4D4C"/>
<path d="M28.8621 48V47.792C30.2861 47.744 30.7661 47.392 30.7661 46.736V37.152H30.1421C28.9581 37.152 27.9341 38.24 26.9261 40.336L26.7021 40.32L26.7981 36.848H36.6061L36.7021 40.32L36.4781 40.336C35.4861 38.32 34.4621 37.152 33.2461 37.152H32.6221V46.736C32.6221 47.392 33.1021 47.744 34.5261 47.792V48H28.8621ZM40.0216 48.128C37.8776 48.128 36.2776 46.624 36.2776 44.336C36.2776 42.064 37.9736 40.496 40.0216 40.496C42.1336 40.496 43.7496 42 43.7496 44.272C43.7496 46.56 42.0536 48.128 40.0216 48.128ZM40.0856 47.824C41.2696 47.824 41.8776 46.8 41.8776 44.304C41.8776 41.808 41.1576 40.8 39.9416 40.8C38.7416 40.8 38.1336 41.808 38.1336 44.304C38.1336 46.8 38.8696 47.824 40.0856 47.824ZM47.6096 48.112C46.3616 48.112 45.5776 47.376 45.5776 45.872V41.632C45.5776 41.152 45.3376 40.864 44.4096 40.848V40.656L47.2576 40.592V45.52C47.2576 46.672 47.5936 47.296 48.5536 47.296C49.2576 47.296 49.8176 46.8 50.2336 45.984V41.632C50.2336 41.152 49.9936 40.88 49.0816 40.864V40.672L51.9136 40.592V47.216C51.9136 47.632 52.1536 47.792 53.0656 47.824V48H50.2656V46.368C49.5776 47.52 48.6656 48.112 47.6096 48.112ZM53.5235 48V47.808C54.4355 47.792 54.6595 47.68 54.6595 47.2V41.696C54.6595 41.216 54.4355 40.912 53.5235 40.896V40.704L56.3075 40.592V42.208C56.8675 41.168 57.6515 40.528 58.4675 40.528C59.3475 40.528 59.7475 41.072 59.7475 41.696C59.7475 42.304 59.3475 42.736 58.7715 42.736C58.1795 42.736 57.7635 42.32 57.7635 41.744C57.7635 41.584 57.8115 41.376 57.8595 41.248C57.2355 41.328 56.8035 41.792 56.3395 42.576V47.2C56.3395 47.68 56.6435 47.776 57.7315 47.808V48H53.5235ZM66.4769 48.128C64.4929 48.128 63.3089 46.512 63.3089 44.416C63.3089 42.224 64.7969 40.496 66.9889 40.496C67.7569 40.496 68.1889 40.656 68.6209 40.88V37.632C68.6209 37.088 68.4609 36.848 67.3409 36.816V36.624L70.3009 36.528V47.184C70.3009 47.584 70.5409 47.824 71.4529 47.84V48L68.6529 48.064V47.184C68.1249 47.728 67.4049 48.128 66.4769 48.128ZM67.2609 47.456C67.8849 47.456 68.2849 47.216 68.6209 46.848V41.616C68.2689 41.12 67.8209 40.8 67.0849 40.8C65.8689 40.8 65.1329 42.208 65.1329 44.336C65.1329 46.096 65.8689 47.456 67.2609 47.456ZM75.6436 48.128C73.4996 48.128 72.0276 46.608 72.0276 44.4C72.0276 42.112 73.6916 40.496 75.6436 40.496C77.7876 40.496 78.8916 42 78.7636 43.904H73.8516V44.272V44.304C73.8516 46.16 74.6836 47.488 76.3636 47.488C77.3716 47.488 77.9636 46.976 78.6196 46.128L78.7956 46.256C78.1556 47.296 77.2436 48.128 75.6436 48.128ZM75.5316 40.8C74.5716 40.8 73.9796 41.776 73.8676 43.616H76.9716C77.1316 41.856 76.7316 40.8 75.5316 40.8ZM79.8736 48.128V45.472H80.0976C81.1216 47.248 81.7296 47.824 82.8816 47.824C83.7776 47.824 84.2576 47.216 84.2576 46.592C84.2576 45.856 83.8096 45.456 82.2256 45.008C80.5936 44.544 79.9056 44.032 79.9056 42.848C79.9056 41.472 80.9616 40.496 82.6096 40.496C83.3136 40.496 83.9856 40.736 84.4176 40.992L84.8176 40.496H84.9936V42.88H84.7696C83.8416 41.376 83.3776 40.8 82.4016 40.8C81.6656 40.8 81.1056 41.296 81.1056 42.032C81.1056 42.72 81.7456 43.072 82.9776 43.392C84.6096 43.84 85.3936 44.416 85.3936 45.664C85.3936 47.008 84.4336 48.128 82.6896 48.128C82.0976 48.128 81.0576 47.872 80.5776 47.552L80.0496 48.128H79.8736ZM39.3251 68.48L38.3651 65.728H34.5891L34.0451 67.12C33.3251 69.008 33.5971 69.552 35.0531 69.792V70H31.3091V69.792C32.3651 69.504 32.9411 68.88 33.6131 67.152L37.0211 58.528H37.6931L41.2771 68.256C41.6771 69.344 41.9171 69.616 43.1491 69.792V70H37.9011V69.792C39.4211 69.712 39.6451 69.376 39.3251 68.48ZM34.7011 65.408H38.2531L36.5891 60.688H36.5251L34.7011 65.408ZM43.0938 70V69.808C44.0058 69.792 44.2298 69.68 44.2298 69.2V63.696C44.2298 63.216 44.0058 62.912 43.0938 62.896V62.704L45.8778 62.592V64.32C46.5978 63.184 47.5738 62.544 48.6458 62.544C49.9098 62.544 50.6138 63.312 50.6138 64.784V69.2C50.6138 69.68 50.8218 69.792 51.7498 69.808V70H47.9738V69.808C48.7098 69.792 48.9338 69.68 48.9338 69.2V65.088C48.9338 63.936 48.5978 63.36 47.6378 63.36C46.9498 63.36 46.3418 63.888 45.9098 64.704V69.2C45.9098 69.68 46.1338 69.792 46.8538 69.808V70H43.0938ZM55.8039 72.944C57.1639 72.944 58.2519 72.256 58.2519 71.216C58.2519 70.576 57.7399 70.16 56.1559 70.16H54.5239C53.7559 70.4 53.3879 70.8 53.3879 71.392C53.3879 72.288 54.1079 72.944 55.8039 72.944ZM55.6599 67.2C56.5559 67.2 56.9079 66.512 56.9079 65.008C56.9079 63.68 56.4599 62.832 55.5159 62.832C54.6039 62.832 54.2679 63.52 54.2679 65.008C54.2679 66.512 54.7319 67.2 55.6599 67.2ZM55.5959 62.544C56.0919 62.544 56.6039 62.656 57.0519 62.848C57.4039 62.144 57.8839 61.536 58.6679 61.536C59.2599 61.536 59.5959 61.888 59.5959 62.352C59.5959 62.736 59.3079 63.04 58.9079 63.04C58.5559 63.04 58.1879 62.736 58.1879 62.224C57.8199 62.288 57.4999 62.624 57.3079 62.976C58.0759 63.376 58.6199 64.032 58.6199 64.976C58.6199 66.528 57.1639 67.472 55.5959 67.472C55.2439 67.472 54.8759 67.424 54.5399 67.344C53.9159 67.552 53.6119 67.792 53.6119 68.112C53.6119 68.432 53.8839 68.688 55.1479 68.688H56.3959C58.3319 68.688 59.3239 69.264 59.3239 70.64C59.3239 71.968 57.9479 73.216 55.3879 73.216C53.4039 73.216 52.1399 72.528 52.1399 71.6C52.1399 70.88 52.8279 70.272 54.0599 70.096V70.064C53.0519 69.792 52.6679 69.312 52.6679 68.672C52.6679 68.16 53.1639 67.568 54.1399 67.216C53.2279 66.848 52.5559 66.144 52.5559 65.04C52.5559 63.504 54.0279 62.544 55.5959 62.544ZM59.7196 70V69.808C60.6476 69.792 60.8716 69.68 60.8716 69.2V59.632C60.8716 59.088 60.7116 58.848 59.5916 58.816V58.624L62.5516 58.528V69.2C62.5516 69.68 62.7596 69.792 63.6876 69.808V70H59.7196ZM66.6958 70.096C65.2718 70.096 64.6478 69.216 64.6478 68.32C64.6478 67.696 64.9358 67.072 65.6078 66.704C66.7918 66.048 68.6638 65.952 69.0318 65.776V64.624C69.0318 63.424 68.6798 62.848 67.7358 62.848C67.1918 62.848 66.6958 63.024 66.4078 63.312C66.6798 63.568 66.8398 63.856 66.8398 64.176C66.8398 64.736 66.5038 65.12 65.8798 65.12C65.3198 65.12 64.9518 64.704 64.9518 64.176C64.9518 63.232 66.1198 62.544 67.9278 62.544C69.7358 62.544 70.6958 63.248 70.6958 64.896V68.624C70.6958 69.408 70.9838 69.744 71.9118 69.36L71.9758 69.52C71.4158 69.872 70.9998 70.064 70.4398 70.064C69.5438 70.064 69.2078 69.696 69.1118 68.832H69.0478C68.4398 69.536 67.6878 70.096 66.6958 70.096ZM67.6238 69.36C68.1998 69.36 68.7118 68.912 69.0318 68.464V66.08C66.9038 66.496 66.4398 66.96 66.4398 68.048C66.4398 68.816 66.8078 69.36 67.6238 69.36ZM74.2032 61.216C73.5792 61.216 73.1632 60.816 73.1632 60.176C73.1632 59.52 73.5792 59.072 74.2032 59.072C74.8432 59.072 75.2592 59.488 75.2592 60.128C75.2592 60.768 74.8432 61.216 74.2032 61.216ZM72.2832 70V69.808C73.2112 69.792 73.4512 69.68 73.4512 69.2V63.696C73.4512 63.216 73.2112 62.912 72.2832 62.896V62.704L75.1312 62.592V69.2C75.1312 69.68 75.3072 69.792 76.2992 69.808V70H72.2832ZM77.1471 70.128V67.472H77.3711C78.3951 69.248 79.0031 69.824 80.1551 69.824C81.0511 69.824 81.5311 69.216 81.5311 68.592C81.5311 67.856 81.0831 67.456 79.4991 67.008C77.8671 66.544 77.1791 66.032 77.1791 64.848C77.1791 63.472 78.2351 62.496 79.8831 62.496C80.5871 62.496 81.2591 62.736 81.6911 62.992L82.0911 62.496H82.2671V64.88H82.0431C81.1151 63.376 80.6511 62.8 79.6751 62.8C78.9391 62.8 78.3791 63.296 78.3791 64.032C78.3791 64.72 79.0191 65.072 80.2511 65.392C81.8831 65.84 82.6671 66.416 82.6671 67.664C82.6671 69.008 81.7071 70.128 79.9631 70.128C79.3711 70.128 78.3311 69.872 77.8511 69.552L77.3231 70.128H77.1471Z" fill="#4D4D4C"/>
</svg>
