<svg width="128" height="128" viewBox="0 0 128 128" fill="none" xmlns="http://www.w3.org/2000/svg">
<circle cx="63.6456" cy="63.6458" r="56.5" transform="rotate(-7.14333 63.6456 63.6458)" fill="white" stroke="#4D4D4C"/>
<path d="M34.9442 57.7432V57.5352C36.3682 57.4872 36.8482 57.1352 36.8482 56.4792V46.8952H36.2242C35.0402 46.8952 34.0162 47.9832 33.0082 50.0792L32.7842 50.0632L32.8802 46.5912H42.6882L42.7842 50.0632L42.5602 50.0792C41.5682 48.0632 40.5442 46.8952 39.3282 46.8952H38.7042V56.4792C38.7042 57.1352 39.1842 57.4872 40.6082 57.5352V57.7432H34.9442ZM46.1037 57.8712C43.9597 57.8712 42.3597 56.3672 42.3597 54.0792C42.3597 51.8072 44.0557 50.2392 46.1037 50.2392C48.2157 50.2392 49.8317 51.7432 49.8317 54.0152C49.8317 56.3032 48.1357 57.8712 46.1037 57.8712ZM46.1677 57.5672C47.3517 57.5672 47.9597 56.5432 47.9597 54.0472C47.9597 51.5512 47.2397 50.5432 46.0237 50.5432C44.8237 50.5432 44.2157 51.5512 44.2157 54.0472C44.2157 56.5432 44.9517 57.5672 46.1677 57.5672ZM53.6917 57.8552C52.4437 57.8552 51.6597 57.1192 51.6597 55.6152V51.3752C51.6597 50.8952 51.4197 50.6072 50.4917 50.5912V50.3992L53.3397 50.3352V55.2632C53.3397 56.4152 53.6757 57.0392 54.6357 57.0392C55.3397 57.0392 55.8997 56.5432 56.3157 55.7272V51.3752C56.3157 50.8952 56.0757 50.6232 55.1637 50.6072V50.4152L57.9957 50.3352V56.9592C57.9957 57.3752 58.2357 57.5352 59.1477 57.5672V57.7432H56.3477V56.1112C55.6597 57.2632 54.7477 57.8552 53.6917 57.8552ZM59.6055 57.7432V57.5512C60.5175 57.5352 60.7415 57.4232 60.7415 56.9432V51.4392C60.7415 50.9592 60.5175 50.6552 59.6055 50.6392V50.4472L62.3895 50.3352V51.9512C62.9495 50.9112 63.7335 50.2712 64.5495 50.2712C65.4295 50.2712 65.8295 50.8152 65.8295 51.4392C65.8295 52.0472 65.4295 52.4792 64.8535 52.4792C64.2615 52.4792 63.8455 52.0632 63.8455 51.4872C63.8455 51.3272 63.8935 51.1192 63.9415 50.9912C63.3175 51.0712 62.8855 51.5352 62.4215 52.3192V56.9432C62.4215 57.4232 62.7255 57.5192 63.8135 57.5512V57.7432H59.6055ZM72.5589 57.8712C70.5749 57.8712 69.3909 56.2552 69.3909 54.1592C69.3909 51.9672 70.8789 50.2392 73.0709 50.2392C73.8389 50.2392 74.2709 50.3992 74.7029 50.6232V47.3752C74.7029 46.8312 74.5429 46.5912 73.4229 46.5592V46.3672L76.3829 46.2712V56.9272C76.3829 57.3272 76.6229 57.5672 77.5349 57.5832V57.7432L74.7349 57.8072V56.9272C74.2069 57.4712 73.4869 57.8712 72.5589 57.8712ZM73.3429 57.1992C73.9669 57.1992 74.3669 56.9592 74.7029 56.5912V51.3592C74.3509 50.8632 73.9029 50.5432 73.1669 50.5432C71.9509 50.5432 71.2149 51.9512 71.2149 54.0792C71.2149 55.8392 71.9509 57.1992 73.3429 57.1992ZM81.7257 57.8712C79.5817 57.8712 78.1097 56.3512 78.1097 54.1432C78.1097 51.8552 79.7737 50.2392 81.7257 50.2392C83.8697 50.2392 84.9737 51.7432 84.8457 53.6472H79.9337V54.0152V54.0472C79.9337 55.9032 80.7657 57.2312 82.4457 57.2312C83.4537 57.2312 84.0457 56.7192 84.7017 55.8712L84.8777 55.9992C84.2377 57.0392 83.3257 57.8712 81.7257 57.8712ZM81.6137 50.5432C80.6537 50.5432 80.0617 51.5192 79.9497 53.3592H83.0537C83.2137 51.5992 82.8137 50.5432 81.6137 50.5432ZM85.9557 57.8712V55.2152H86.1797C87.2037 56.9912 87.8117 57.5672 88.9637 57.5672C89.8597 57.5672 90.3397 56.9592 90.3397 56.3352C90.3397 55.5992 89.8917 55.1992 88.3077 54.7512C86.6757 54.2872 85.9877 53.7752 85.9877 52.5912C85.9877 51.2152 87.0437 50.2392 88.6917 50.2392C89.3957 50.2392 90.0677 50.4792 90.4997 50.7352L90.8997 50.2392H91.0757V52.6232H90.8517C89.9237 51.1192 89.4597 50.5432 88.4837 50.5432C87.7477 50.5432 87.1877 51.0392 87.1877 51.7752C87.1877 52.4632 87.8277 52.8152 89.0597 53.1352C90.6917 53.5832 91.4757 54.1592 91.4757 55.4072C91.4757 56.7512 90.5157 57.8712 88.7717 57.8712C88.1797 57.8712 87.1397 57.6152 86.6597 57.2952L86.1317 57.8712H85.9557ZM38.7645 79.7432V79.5512C39.5005 79.5352 39.6925 79.4232 39.6925 78.9432V74.8632C39.6925 73.7112 39.3405 73.1032 38.4285 73.1032C37.7405 73.1032 37.2285 73.6312 36.7965 74.4472V78.9432C36.7965 79.4232 36.9245 79.5352 37.6445 79.5512V79.7432H33.9805V79.5512C34.8925 79.5352 35.1165 79.4232 35.1165 78.9432V73.4392C35.1165 72.9592 34.8925 72.6552 33.9805 72.6392V72.4472L36.7645 72.3352V74.0632C37.4685 72.9112 38.3645 72.2872 39.4365 72.2872C40.4925 72.2872 41.1805 72.8632 41.3245 73.9512C42.0125 72.9272 43.0045 72.2872 44.0125 72.2872C45.2445 72.2872 45.9485 73.0552 45.9485 74.5272V78.9432C45.9485 79.4232 46.1565 79.5352 47.0845 79.5512V79.7432H43.4045V79.5512C44.1405 79.5352 44.2685 79.4232 44.2685 78.9432V74.8632C44.2685 73.7112 43.9325 73.1032 43.0205 73.1032C42.4925 73.1032 41.8365 73.5352 41.3725 74.3032V74.3992V78.9432C41.3725 79.4232 41.5805 79.5352 42.3965 79.5512V79.7432H38.7645ZM49.4962 70.9592C48.8722 70.9592 48.4562 70.5592 48.4562 69.9192C48.4562 69.2632 48.8722 68.8152 49.4962 68.8152C50.1362 68.8152 50.5522 69.2312 50.5522 69.8712C50.5522 70.5112 50.1362 70.9592 49.4962 70.9592ZM47.5762 79.7432V79.5512C48.5042 79.5352 48.7442 79.4232 48.7442 78.9432V73.4392C48.7442 72.9592 48.5042 72.6552 47.5762 72.6392V72.4472L50.4242 72.3352V78.9432C50.4242 79.4232 50.6002 79.5352 51.5922 79.5512V79.7432H47.5762ZM52.168 79.7432V79.5512C53.08 79.5352 53.304 79.4232 53.304 78.9432V73.4392C53.304 72.9592 53.08 72.6552 52.168 72.6392V72.4472L54.952 72.3352V74.0632C55.672 72.9272 56.648 72.2872 57.72 72.2872C58.984 72.2872 59.688 73.0552 59.688 74.5272V78.9432C59.688 79.4232 59.896 79.5352 60.824 79.5512V79.7432H57.048V79.5512C57.784 79.5352 58.008 79.4232 58.008 78.9432V74.8312C58.008 73.6792 57.672 73.1032 56.712 73.1032C56.024 73.1032 55.416 73.6312 54.984 74.4472V78.9432C54.984 79.4232 55.208 79.5352 55.928 79.5512V79.7432H52.168ZM63.2462 70.9592C62.6222 70.9592 62.2062 70.5592 62.2062 69.9192C62.2062 69.2632 62.6222 68.8152 63.2462 68.8152C63.8862 68.8152 64.3022 69.2312 64.3022 69.8712C64.3022 70.5112 63.8862 70.9592 63.2462 70.9592ZM61.3262 79.7432V79.5512C62.2542 79.5352 62.4942 79.4232 62.4942 78.9432V73.4392C62.4942 72.9592 62.2542 72.6552 61.3262 72.6392V72.4472L64.1742 72.3352V78.9432C64.1742 79.4232 64.3502 79.5352 65.3422 79.5512V79.7432H61.3262ZM70.702 79.7432V79.5512C71.438 79.5352 71.63 79.4232 71.63 78.9432V74.8632C71.63 73.7112 71.278 73.1032 70.366 73.1032C69.678 73.1032 69.166 73.6312 68.734 74.4472V78.9432C68.734 79.4232 68.862 79.5352 69.582 79.5512V79.7432H65.918V79.5512C66.83 79.5352 67.054 79.4232 67.054 78.9432V73.4392C67.054 72.9592 66.83 72.6552 65.918 72.6392V72.4472L68.702 72.3352V74.0632C69.406 72.9112 70.302 72.2872 71.374 72.2872C72.43 72.2872 73.118 72.8632 73.262 73.9512C73.95 72.9272 74.942 72.2872 75.95 72.2872C77.182 72.2872 77.886 73.0552 77.886 74.5272V78.9432C77.886 79.4232 78.094 79.5352 79.022 79.5512V79.7432H75.342V79.5512C76.078 79.5352 76.206 79.4232 76.206 78.9432V74.8632C76.206 73.7112 75.87 73.1032 74.958 73.1032C74.43 73.1032 73.774 73.5352 73.31 74.3032V74.3992V78.9432C73.31 79.4232 73.518 79.5352 74.334 79.5512V79.7432H70.702ZM83.2257 79.8712C81.0817 79.8712 79.6097 78.3512 79.6097 76.1432C79.6097 73.8552 81.2737 72.2392 83.2257 72.2392C85.3697 72.2392 86.4737 73.7432 86.3457 75.6472H81.4337V76.0152V76.0472C81.4337 77.9032 82.2657 79.2312 83.9457 79.2312C84.9537 79.2312 85.5457 78.7192 86.2017 77.8712L86.3777 77.9992C85.7377 79.0392 84.8257 79.8712 83.2257 79.8712ZM83.1137 72.5432C82.1537 72.5432 81.5617 73.5192 81.4497 75.3592H84.5537C84.7137 73.5992 84.3137 72.5432 83.1137 72.5432ZM87.4557 79.8712V77.2152H87.6797C88.7037 78.9912 89.3117 79.5672 90.4637 79.5672C91.3597 79.5672 91.8397 78.9592 91.8397 78.3352C91.8397 77.5992 91.3917 77.1992 89.8077 76.7512C88.1757 76.2872 87.4877 75.7752 87.4877 74.5912C87.4877 73.2152 88.5437 72.2392 90.1917 72.2392C90.8957 72.2392 91.5677 72.4792 91.9997 72.7352L92.3997 72.2392H92.5757V74.6232H92.3517C91.4237 73.1192 90.9597 72.5432 89.9837 72.5432C89.2477 72.5432 88.6877 73.0392 88.6877 73.7752C88.6877 74.4632 89.3277 74.8152 90.5597 75.1352C92.1917 75.5832 92.9757 76.1592 92.9757 77.4072C92.9757 78.7512 92.0157 79.8712 90.2717 79.8712C89.6797 79.8712 88.6397 79.6152 88.1597 79.2952L87.6317 79.8712H87.4557Z" fill="#4D4D4C"/>
<path d="M111.832 63.7432C111.832 63.3289 111.496 62.9932 111.082 62.9932C110.668 62.9932 110.332 63.3289 110.332 63.7432H111.832ZM108.251 49.252C108.623 49.4348 109.072 49.2817 109.255 48.91L112.234 42.8528C112.417 42.4811 112.264 42.0316 111.892 41.8488C111.52 41.666 111.071 41.8192 110.888 42.1909L108.24 47.575L102.856 44.9271C102.484 44.7443 102.035 44.8975 101.852 45.2692C101.669 45.6409 101.822 46.0904 102.194 46.2732L108.251 49.252ZM108.582 48.579L109.292 48.3371C108.758 46.7689 108.144 45.2375 107.456 43.7475L106.775 44.0619L106.094 44.3763C106.761 45.8192 107.355 47.3023 107.872 48.8208L108.582 48.579ZM101.811 35.7108L102.412 35.263C100.442 32.615 98.2032 30.1783 95.7369 27.9929L95.2395 28.5542L94.7421 29.1156C97.1315 31.2327 99.3001 33.5934 101.209 36.1586L101.811 35.7108ZM87.343 22.8936L87.7147 22.2422C84.8731 20.6206 81.8487 19.2824 78.68 18.266L78.4509 18.9802L78.2219 19.6943C81.2902 20.6785 84.2191 21.9744 86.9713 23.545L87.343 22.8936ZM68.942 16.9914L69.0186 16.2453C67.3956 16.0786 65.7487 15.9932 64.082 15.9932V16.7432V17.4932C65.6974 17.4932 67.2931 17.5759 68.8653 17.7375L68.942 16.9914ZM64.082 16.7432V15.9932C62.5027 15.9932 60.9412 16.0699 59.4008 16.2198L59.4734 16.9662L59.5461 17.7127C61.0382 17.5675 62.5513 17.4932 64.082 17.4932V16.7432ZM50.434 18.7554L50.2166 18.0376C47.1963 18.9527 44.3026 20.1588 41.5683 21.6234L41.9224 22.2845L42.2766 22.9456C44.9247 21.5272 47.7269 20.3592 50.6515 19.4732L50.434 18.7554ZM34.2651 27.4103L33.789 26.8308C31.3727 28.816 29.1549 31.0339 27.1697 33.4501L27.7492 33.9262L28.3286 34.4023C30.2519 32.0616 32.4004 29.913 34.7412 27.9898L34.2651 27.4103ZM22.6234 41.5836L21.9622 41.2295C20.4977 43.9638 19.2915 46.8574 18.3765 49.8777L19.0943 50.0952L19.812 50.3126C20.6981 47.388 21.8661 44.5859 23.2845 41.9377L22.6234 41.5836ZM17.3051 59.1346L16.5586 59.0619C16.4087 60.6023 16.332 62.1639 16.332 63.7432H17.082H17.832C17.832 62.2125 17.9064 60.6994 18.0516 59.2072L17.3051 59.1346ZM17.082 63.7432H16.332C16.332 65.3224 16.4087 66.884 16.5586 68.4244L17.3051 68.3517L18.0516 68.2791C17.9064 66.787 17.832 65.2739 17.832 63.7432H17.082ZM19.0943 77.3912L18.3765 77.6086C19.2915 80.6289 20.4977 83.5226 21.9622 86.2569L22.6234 85.9027L23.2845 85.5486C21.8661 82.9005 20.6981 80.0983 19.812 77.1737L19.0943 77.3912ZM27.7492 93.5601L27.1697 94.0362C29.1549 96.4525 31.3727 98.6703 33.789 100.656L34.2651 100.076L34.7412 99.4966C32.4004 97.5733 30.2519 95.4248 28.3286 93.084L27.7492 93.5601ZM41.9224 105.202L41.5683 105.863C44.3026 107.327 47.1963 108.534 50.2166 109.449L50.434 108.731L50.6515 108.013C47.7269 107.127 44.9247 105.959 42.2766 104.541L41.9224 105.202ZM59.4734 110.52L59.4008 111.267C60.9412 111.416 62.5027 111.493 64.082 111.493V110.743V109.993C62.5513 109.993 61.0382 109.919 59.5461 109.774L59.4734 110.52ZM64.082 110.743V111.493C65.6613 111.493 67.2229 111.416 68.7633 111.267L68.6906 110.52L68.618 109.774C67.1258 109.919 65.6127 109.993 64.082 109.993V110.743ZM77.73 108.731L77.9475 109.449C80.9678 108.534 83.8614 107.327 86.5957 105.863L86.2416 105.202L85.8875 104.541C83.2393 105.959 80.4372 107.127 77.5126 108.013L77.73 108.731ZM93.899 100.076L94.3751 100.656C96.7913 98.6703 99.0092 96.4525 100.994 94.0362L100.415 93.5601L99.8354 93.084C97.9122 95.4248 95.7636 97.5733 93.4229 99.4966L93.899 100.076ZM105.541 85.9027L106.202 86.2569C107.666 83.5226 108.873 80.6289 109.788 77.6086L109.07 77.3912L108.352 77.1737C107.466 80.0983 106.298 82.9005 104.88 85.5486L105.541 85.9027ZM110.859 68.3517L111.605 68.4244C111.755 66.884 111.832 65.3224 111.832 63.7432H111.082H110.332C110.332 65.2739 110.258 66.787 110.112 68.2791L110.859 68.3517ZM111.832 63.7432C111.832 63.3289 111.496 62.9932 111.082 62.9932C110.668 62.9932 110.332 63.3289 110.332 63.7432H111.832ZM108.251 49.252C108.623 49.4348 109.072 49.2817 109.255 48.91L112.234 42.8528C112.417 42.4811 112.264 42.0316 111.892 41.8488C111.52 41.666 111.071 41.8192 110.888 42.1909L108.24 47.575L102.856 44.9271C102.484 44.7443 102.035 44.8975 101.852 45.2692C101.669 45.6409 101.822 46.0904 102.194 46.2732L108.251 49.252ZM108.582 48.579L109.292 48.3371C108.758 46.7689 108.144 45.2375 107.456 43.7475L106.775 44.0619L106.094 44.3763C106.761 45.8192 107.355 47.3023 107.872 48.8208L108.582 48.579ZM101.811 35.7108L102.412 35.263C100.442 32.615 98.2032 30.1783 95.7369 27.9929L95.2395 28.5542L94.7421 29.1156C97.1315 31.2327 99.3001 33.5934 101.209 36.1586L101.811 35.7108ZM87.343 22.8936L87.7147 22.2422C84.8731 20.6206 81.8487 19.2824 78.68 18.266L78.4509 18.9802L78.2219 19.6943C81.2902 20.6785 84.2191 21.9744 86.9713 23.545L87.343 22.8936ZM68.942 16.9914L69.0186 16.2453C67.3956 16.0786 65.7487 15.9932 64.082 15.9932V16.7432V17.4932C65.6974 17.4932 67.2931 17.5759 68.8653 17.7375L68.942 16.9914ZM64.082 16.7432V15.9932C62.5027 15.9932 60.9412 16.0699 59.4008 16.2198L59.4734 16.9662L59.5461 17.7127C61.0382 17.5675 62.5513 17.4932 64.082 17.4932V16.7432ZM50.434 18.7554L50.2166 18.0376C47.1963 18.9527 44.3026 20.1588 41.5683 21.6234L41.9224 22.2845L42.2766 22.9456C44.9247 21.5272 47.7269 20.3592 50.6515 19.4732L50.434 18.7554ZM34.2651 27.4103L33.789 26.8308C31.3727 28.816 29.1549 31.0339 27.1697 33.4501L27.7492 33.9262L28.3286 34.4023C30.2519 32.0616 32.4004 29.913 34.7412 27.9898L34.2651 27.4103ZM22.6234 41.5836L21.9622 41.2295C20.4977 43.9638 19.2915 46.8574 18.3765 49.8777L19.0943 50.0952L19.812 50.3126C20.6981 47.388 21.8661 44.5859 23.2845 41.9377L22.6234 41.5836ZM17.3051 59.1346L16.5586 59.0619C16.4087 60.6023 16.332 62.1639 16.332 63.7432H17.082H17.832C17.832 62.2125 17.9064 60.6994 18.0516 59.2072L17.3051 59.1346ZM17.082 63.7432H16.332C16.332 65.3224 16.4087 66.884 16.5586 68.4244L17.3051 68.3517L18.0516 68.2791C17.9064 66.787 17.832 65.2739 17.832 63.7432H17.082ZM19.0943 77.3912L18.3765 77.6086C19.2915 80.6289 20.4977 83.5226 21.9622 86.2569L22.6234 85.9027L23.2845 85.5486C21.8661 82.9005 20.6981 80.0983 19.812 77.1737L19.0943 77.3912ZM27.7492 93.5601L27.1697 94.0362C29.1549 96.4525 31.3727 98.6703 33.789 100.656L34.2651 100.076L34.7412 99.4966C32.4004 97.5733 30.2519 95.4248 28.3286 93.084L27.7492 93.5601ZM41.9224 105.202L41.5683 105.863C44.3026 107.327 47.1963 108.534 50.2166 109.449L50.434 108.731L50.6515 108.013C47.7269 107.127 44.9247 105.959 42.2766 104.541L41.9224 105.202ZM59.4734 110.52L59.4008 111.267C60.9412 111.416 62.5027 111.493 64.082 111.493V110.743V109.993C62.5513 109.993 61.0382 109.919 59.5461 109.774L59.4734 110.52ZM64.082 110.743V111.493C65.6613 111.493 67.2229 111.416 68.7633 111.267L68.6906 110.52L68.618 109.774C67.1258 109.919 65.6127 109.993 64.082 109.993V110.743ZM77.73 108.731L77.9475 109.449C80.9678 108.534 83.8614 107.327 86.5957 105.863L86.2416 105.202L85.8875 104.541C83.2393 105.959 80.4372 107.127 77.5126 108.013L77.73 108.731ZM93.899 100.076L94.3751 100.656C96.7913 98.6703 99.0092 96.4525 100.994 94.0362L100.415 93.5601L99.8354 93.084C97.9122 95.4248 95.7636 97.5733 93.4229 99.4966L93.899 100.076ZM105.541 85.9027L106.202 86.2569C107.666 83.5226 108.873 80.6289 109.788 77.6086L109.07 77.3912L108.352 77.1737C107.466 80.0983 106.298 82.9005 104.88 85.5486L105.541 85.9027ZM110.859 68.3517L111.605 68.4244C111.755 66.884 111.832 65.3224 111.832 63.7432H111.082H110.332C110.332 65.2739 110.258 66.787 110.112 68.2791L110.859 68.3517Z" fill="#4D4D4C"/>
</svg>
