<svg version="1.0" preserveAspectRatio="xMidYMid meet" viewBox="275.9915254237288 468.958479512 292.646186440678 302.323486792" zoomAndPan="magnify" xmlns:xlink="http://www.w3.org/1999/xlink" xmlns="http://www.w3.org/2000/svg" style="max-height: 500px" width="292.646186440678" height="302.323486792"><defs><clipPath id="4d8d0e3ef6"><path clip-rule="nonzero" d="M 0 0.15625 L 841.5 0.15625 L 841.5 1189.347656 L 0 1189.347656 Z M 0 0.15625"/></clipPath><clipPath id="8e31688bd5"><path clip-rule="nonzero" d="M 0 0.15625 L 841.289062 0.15625 L 841.289062 1189.042969 L 0 1189.042969 Z M 0 0.15625"/></clipPath><clipPath id="aaf3ea41dc"><path clip-rule="nonzero" d="M 0.480469 0.597656 L 300.445312 0.597656 L 300.445312 300.5625 L 0.480469 300.5625 Z M 0.480469 0.597656"/></clipPath><clipPath id="ece06fa49b"><rect height="301" y="0" width="301" x="0"/></clipPath><clipPath id="0592487879"><rect height="1190" y="0" width="842" x="0"/></clipPath></defs><g clip-path="url(#4d8d0e3ef6)"><path fill-rule="nonzero" fill-opacity="1" d="M 0 0.15625 L 841.5 0.15625 L 841.5 1189.347656 L 0 1189.347656 Z M 0 0.15625" fill="#ffffff"/><g transform="matrix(1, 0, 0, 1, 0, 0.000000000000098033)"><g clip-path="url(#0592487879)"><g clip-path="url(#8e31688bd5)"><path fill-rule="nonzero" fill-opacity="1" d="M 0 0.15625 L 841.289062 0.15625 L 841.289062 1189.042969 L 0 1189.042969 Z M 0 0.15625" fill="#ffffff"/></g><g transform="matrix(1, 0, 0, 1, 270, 468)"><g clip-path="url(#ece06fa49b)"><g clip-path="url(#aaf3ea41dc)"><path fill-rule="nonzero" fill-opacity="1" d="M 0.480469 0.597656 L 300.445312 0.597656 L 300.445312 300.5625 L 0.480469 300.5625 Z M 0.480469 0.597656" fill="#ffffff"/></g><path stroke-miterlimit="4" stroke-opacity="1" stroke-width="1" stroke="#000000" d="M 1.999891 2.499869 L 8.999886 2.499869 M 10.999884 2.499869 L 13.999882 2.499869 M 14.999882 2.499869 L 15.999881 2.499869 M 18.999879 2.499869 L 22.999876 2.499869 M 23.999875 2.499869 L 30.99987 2.499869 M 1.999891 3.499868 L 2.99989 3.499868 M 7.999887 3.499868 L 8.999886 3.499868 M 10.999884 3.499868 L 12.999883 3.499868 M 13.999882 3.499868 L 17.999879 3.499868 M 19.999878 3.499868 L 20.999877 3.499868 M 23.999875 3.499868 L 24.999874 3.499868 M 29.999871 3.499868 L 30.99987 3.499868 M 1.999891 4.499867 L 2.99989 4.499867 M 3.999889 4.499867 L 6.999887 4.499867 M 7.999887 4.499867 L 8.999886 4.499867 M 9.999885 4.499867 L 12.999883 4.499867 M 13.999882 4.499867 L 14.999882 4.499867 M 15.999881 4.499867 L 17.999879 4.499867 M 19.999878 4.499867 L 21.999876 4.499867 M 23.999875 4.499867 L 24.999874 4.499867 M 25.999874 4.499867 L 28.999871 4.499867 M 29.999871 4.499867 L 30.99987 4.499867 M 1.999891 5.499866 L 2.99989 5.499866 M 3.999889 5.499866 L 6.999887 5.499866 M 7.999887 5.499866 L 8.999886 5.499866 M 9.999885 5.499866 L 10.999884 5.499866 M 13.999882 5.499866 L 14.999882 5.499866 M 16.99988 5.499866 L 19.999878 5.499866 M 21.999876 5.499866 L 22.999876 5.499866 M 23.999875 5.499866 L 24.999874 5.499866 M 25.999874 5.499866 L 28.999871 5.499866 M 29.999871 5.499866 L 30.99987 5.499866 M 1.999891 6.499866 L 2.99989 6.499866 M 3.999889 6.499866 L 6.999887 6.499866 M 7.999887 6.499866 L 8.999886 6.499866 M 9.999885 6.499866 L 11.999884 6.499866 M 13.999882 6.499866 L 15.999881 6.499866 M 17.999879 6.499866 L 18.999879 6.499866 M 19.999878 6.499866 L 22.999876 6.499866 M 23.999875 6.499866 L 24.999874 6.499866 M 25.999874 6.499866 L 28.999871 6.499866 M 29.999871 6.499866 L 30.99987 6.499866 M 1.999891 7.499865 L 2.99989 7.499865 M 7.999887 7.499865 L 8.999886 7.499865 M 9.999885 7.499865 L 10.999884 7.499865 M 11.999884 7.499865 L 17.999879 7.499865 M 19.999878 7.499865 L 20.999877 7.499865 M 23.999875 7.499865 L 24.999874 7.499865 M 29.999871 7.499865 L 30.99987 7.499865 M 1.999891 8.499864 L 8.999886 8.499864 M 9.999885 8.499864 L 10.999884 8.499864 M 11.999884 8.499864 L 12.999883 8.499864 M 13.999882 8.499864 L 14.999882 8.499864 M 15.999881 8.499864 L 16.99988 8.499864 M 17.999879 8.499864 L 18.999879 8.499864 M 19.999878 8.499864 L 20.999877 8.499864 M 21.999876 8.499864 L 22.999876 8.499864 M 23.999875 8.499864 L 30.99987 8.499864 M 9.999885 9.499863 L 11.999884 9.499863 M 12.999883 9.499863 L 13.999882 9.499863 M 14.999882 9.499863 L 15.999881 9.499863 M 16.99988 9.499863 L 17.999879 9.499863 M 21.999876 9.499863 L 22.999876 9.499863 M 1.999891 10.499863 L 2.99989 10.499863 M 3.999889 10.499863 L 8.999886 10.499863 M 10.999884 10.499863 L 12.999883 10.499863 M 15.999881 10.499863 L 20.999877 10.499863 M 21.999876 10.499863 L 22.999876 10.499863 M 23.999875 10.499863 L 28.999871 10.499863 M 1.999891 11.499862 L 4.999889 11.499862 M 5.999888 11.499862 L 7.999887 11.499862 M 9.999885 11.499862 L 12.999883 11.499862 M 17.999879 11.499862 L 22.999876 11.499862 M 23.999875 11.499862 L 26.999873 11.499862 M 29.999871 11.499862 L 30.99987 11.499862 M 4.999889 12.499861 L 8.999886 12.499861 M 9.999885 12.499861 L 10.999884 12.499861 M 13.999882 12.499861 L 14.999882 12.499861 M 16.99988 12.499861 L 19.999878 12.499861 M 21.999876 12.499861 L 22.999876 12.499861 M 24.999874 12.499861 L 26.999873 12.499861 M 2.99989 13.499861 L 3.999889 13.499861 M 6.999887 13.499861 L 7.999887 13.499861 M 11.999884 13.499861 L 14.999882 13.499861 M 15.999881 13.499861 L 17.999879 13.499861 M 19.999878 13.499861 L 21.999876 13.499861 M 22.999876 13.499861 L 23.999875 13.499861 M 26.999873 13.499861 L 27.999872 13.499861 M 28.999871 13.499861 L 29.999871 13.499861 M 2.99989 14.49986 L 3.999889 14.49986 M 4.999889 14.49986 L 8.999886 14.49986 M 10.999884 14.49986 L 11.999884 14.49986 M 16.99988 14.49986 L 17.999879 14.49986 M 18.999879 14.49986 L 19.999878 14.49986 M 21.999876 14.49986 L 22.999876 14.49986 M 26.999873 14.49986 L 28.999871 14.49986 M 8.999886 15.499859 L 9.999885 15.499859 M 10.999884 15.499859 L 13.999882 15.499859 M 14.999882 15.499859 L 16.99988 15.499859 M 17.999879 15.499859 L 26.999873 15.499859 M 29.999871 15.499859 L 30.99987 15.499859 M 2.99989 16.499858 L 3.999889 16.499858 M 4.999889 16.499858 L 6.999887 16.499858 M 7.999887 16.499858 L 9.999885 16.499858 M 14.999882 16.499858 L 17.999879 16.499858 M 18.999879 16.499858 L 19.999878 16.499858 M 21.999876 16.499858 L 22.999876 16.499858 M 24.999874 16.499858 L 25.999874 16.499858 M 26.999873 16.499858 L 28.999871 16.499858 M 2.99989 17.499858 L 3.999889 17.499858 M 6.999887 17.499858 L 7.999887 17.499858 M 8.999886 17.499858 L 9.999885 17.499858 M 10.999884 17.499858 L 12.999883 17.499858 M 13.999882 17.499858 L 15.999881 17.499858 M 17.999879 17.499858 L 18.999879 17.499858 M 19.999878 17.499858 L 20.999877 17.499858 M 25.999874 17.499858 L 26.999873 17.499858 M 28.999871 17.499858 L 29.999871 17.499858 M 3.999889 18.499857 L 4.999889 18.499857 M 5.999888 18.499857 L 9.999885 18.499857 M 10.999884 18.499857 L 11.999884 18.499857 M 12.999883 18.499857 L 14.999882 18.499857 M 15.999881 18.499857 L 16.99988 18.499857 M 18.999879 18.499857 L 19.999878 18.499857 M 20.999877 18.499857 L 21.999876 18.499857 M 22.999876 18.499857 L 23.999875 18.499857 M 24.999874 18.499857 L 25.999874 18.499857 M 26.999873 18.499857 L 28.999871 18.499857 M 1.999891 19.499856 L 4.999889 19.499856 M 5.999888 19.499856 L 7.999887 19.499856 M 10.999884 19.499856 L 11.999884 19.499856 M 12.999883 19.499856 L 14.999882 19.499856 M 19.999878 19.499856 L 26.999873 19.499856 M 27.999872 19.499856 L 28.999871 19.499856 M 29.999871 19.499856 L 30.99987 19.499856 M 1.999891 20.499856 L 2.99989 20.499856 M 5.999888 20.499856 L 6.999887 20.499856 M 7.999887 20.499856 L 8.999886 20.499856 M 10.999884 20.499856 L 12.999883 20.499856 M 16.99988 20.499856 L 18.999879 20.499856 M 21.999876 20.499856 L 22.999876 20.499856 M 23.999875 20.499856 L 26.999873 20.499856 M 27.999872 20.499856 L 28.999871 20.499856 M 1.999891 21.499855 L 2.99989 21.499855 M 5.999888 21.499855 L 6.999887 21.499855 M 9.999885 21.499855 L 10.999884 21.499855 M 11.999884 21.499855 L 12.999883 21.499855 M 13.999882 21.499855 L 14.999882 21.499855 M 15.999881 21.499855 L 17.999879 21.499855 M 20.999877 21.499855 L 22.999876 21.499855 M 28.999871 21.499855 L 29.999871 21.499855 M 1.999891 22.499854 L 2.99989 22.499854 M 3.999889 22.499854 L 4.999889 22.499854 M 7.999887 22.499854 L 14.999882 22.499854 M 17.999879 22.499854 L 19.999878 22.499854 M 21.999876 22.499854 L 26.999873 22.499854 M 27.999872 22.499854 L 30.99987 22.499854 M 9.999885 23.499853 L 10.999884 23.499853 M 13.999882 23.499853 L 16.99988 23.499853 M 17.999879 23.499853 L 18.999879 23.499853 M 21.999876 23.499853 L 22.999876 23.499853 M 25.999874 23.499853 L 30.99987 23.499853 M 1.999891 24.499853 L 8.999886 24.499853 M 10.999884 24.499853 L 11.999884 24.499853 M 12.999883 24.499853 L 13.999882 24.499853 M 14.999882 24.499853 L 17.999879 24.499853 M 20.999877 24.499853 L 22.999876 24.499853 M 23.999875 24.499853 L 24.999874 24.499853 M 25.999874 24.499853 L 28.999871 24.499853 M 1.999891 25.499852 L 2.99989 25.499852 M 7.999887 25.499852 L 8.999886 25.499852 M 9.999885 25.499852 L 12.999883 25.499852 M 13.999882 25.499852 L 15.999881 25.499852 M 17.999879 25.499852 L 18.999879 25.499852 M 19.999878 25.499852 L 22.999876 25.499852 M 25.999874 25.499852 L 26.999873 25.499852 M 1.999891 26.499851 L 2.99989 26.499851 M 3.999889 26.499851 L 6.999887 26.499851 M 7.999887 26.499851 L 8.999886 26.499851 M 9.999885 26.499851 L 10.999884 26.499851 M 11.999884 26.499851 L 12.999883 26.499851 M 15.999881 26.499851 L 17.999879 26.499851 M 18.999879 26.499851 L 19.999878 26.499851 M 21.999876 26.499851 L 26.999873 26.499851 M 27.999872 26.499851 L 28.999871 26.499851 M 1.999891 27.49985 L 2.99989 27.49985 M 3.999889 27.49985 L 6.999887 27.49985 M 7.999887 27.49985 L 8.999886 27.49985 M 9.999885 27.49985 L 10.999884 27.49985 M 12.999883 27.49985 L 13.999882 27.49985 M 17.999879 27.49985 L 21.999876 27.49985 M 26.999873 27.49985 L 30.99987 27.49985 M 1.999891 28.49985 L 2.99989 28.49985 M 3.999889 28.49985 L 6.999887 28.49985 M 7.999887 28.49985 L 8.999886 28.49985 M 9.999885 28.49985 L 10.999884 28.49985 M 11.999884 28.49985 L 14.999882 28.49985 M 16.99988 28.49985 L 18.999879 28.49985 M 22.999876 28.49985 L 29.999871 28.49985 M 1.999891 29.499849 L 2.99989 29.499849 M 7.999887 29.499849 L 8.999886 29.499849 M 10.999884 29.499849 L 13.999882 29.499849 M 15.999881 29.499849 L 17.999879 29.499849 M 19.999878 29.499849 L 20.999877 29.499849 M 21.999876 29.499849 L 22.999876 29.499849 M 23.999875 29.499849 L 24.999874 29.499849 M 26.999873 29.499849 L 27.999872 29.499849 M 28.999871 29.499849 L 29.999871 29.499849 M 1.999891 30.499848 L 8.999886 30.499848 M 9.999885 30.499848 L 10.999884 30.499848 M 12.999883 30.499848 L 14.999882 30.499848 M 15.999881 30.499848 L 16.99988 30.499848 M 18.999879 30.499848 L 19.999878 30.499848 M 20.999877 30.499848 L 21.999876 30.499848 M 24.999874 30.499848 L 28.999871 30.499848" stroke-linejoin="miter" fill-rule="nonzero" fill="#ffffff" fill-opacity="1" transform="matrix(9.08985, 0, 0, 9.08985, 0.481447, 0.596882)" stroke-linecap="butt"/></g></g></g></g></g></svg>